<svg xmlns="http://www.w3.org/2000/svg" viewBox="0 0 1024 1024" width="1024" height="1024">
<g fill="#FEFFFF">
<path d="
M 0.00 1024.00 
L 1024.00 1024.00
L 1024.00 0.00
L 0.00 0.00
L 0.00 1024.00
M 510.00 515.00 
C 480.82 527.59 455.66 554.81 455.00 588.00
C 454.95 590.66 455.00 593.33 455.00 596.00
C 455.00 605.16 457.20 616.68 460.32 624.68 C 463.45 632.67 467.87 640.73 473.25 646.75 C 478.63 652.77 483.50 660.24 490.23 663.77 C 496.96 667.30 504.28 677.00 512.00 677.00
C 520.06 677.00 528.24 666.59 536.08 664.08 C 543.91 661.56 551.00 653.33 558.75 649.75 C 566.49 646.16 573.54 639.67 580.70 634.70 C 587.85 629.72 593.76 623.64 600.25 617.25 C 606.73 610.85 612.25 604.73 616.92 596.92 C 621.59 589.10 627.83 579.65 628.00 570.00
C 606.66 570.00 585.34 570.00 564.00 570.00
C 561.96 557.82 566.71 552.91 564.00 540.00 C 561.29 527.09 572.16 526.99 583.00 528.00 C 593.84 529.01 603.43 527.53 614.00 528.00 C 624.57 528.47 634.54 527.75 645.00 528.00 C 655.46 528.25 665.57 527.82 676.00 528.00
C 679.02 574.93 658.01 623.38 623.25 654.25 C 588.48 685.12 553.36 704.81 512.00 723.00
C 502.08 723.00 491.98 711.96 482.75 708.25 C 473.53 704.53 464.84 696.92 456.75 690.25 C 448.66 683.57 442.43 675.53 436.08 666.92 C 429.73 658.30 424.51 649.08 420.68 638.32 C 416.85 627.56 412.89 614.23 412.00 602.00 C 411.12 589.77 413.13 573.26 415.98 561.98 C 418.82 550.69 423.36 540.62 428.92 530.92 C 434.49 521.22 440.31 514.11 448.25 506.25 C 456.19 498.39 463.13 492.23 472.25 486.25 C 481.36 480.26 492.09 475.61 502.00 471.00
C 505.37 477.23 507.52 483.81 511.00 490.00
C 526.07 476.14 536.20 455.55 555.08 446.08 C 573.95 436.60 589.34 421.56 603.25 405.25 C 617.15 388.93 626.26 366.62 634.00 347.00
C 627.13 345.80 620.74 342.77 614.00 341.00
C 634.30 323.24 655.51 305.87 676.00 288.00
C 682.47 314.96 688.95 341.91 695.00 369.00
C 684.94 362.92 672.47 358.36 670.07 371.07 C 667.67 383.79 661.12 389.93 656.25 400.25 C 651.37 410.56 645.56 418.26 638.75 426.75 C 631.95 435.24 626.34 442.09 618.75 449.75 C 611.17 457.42 604.29 463.57 595.75 469.75 C 587.22 475.93 578.61 482.13 569.30 487.30 C 559.99 492.48 550.67 497.45 540.77 501.77 C 530.87 506.09 519.82 510.17 510.00 515.00
M 512.00 344.00 
C 504.02 343.77 495.74 352.90 487.77 354.77 C 479.80 356.64 470.67 361.75 462.92 364.92 C 455.18 368.10 445.76 371.61 438.31 375.31 C 430.85 379.00 420.53 381.38 413.92 385.92 C 407.32 390.47 393.32 390.70 389.00 397.00
C 386.04 403.32 390.38 412.93 389.00 420.00 C 387.62 427.07 389.74 435.58 389.00 443.00 C 388.26 450.42 390.90 458.32 386.00 464.00
C 368.00 484.85 352.31 508.05 347.00 535.00
C 345.07 521.45 346.13 506.34 346.00 492.00 C 345.87 477.66 345.89 461.21 346.00 447.00 C 346.11 432.79 345.57 415.55 346.00 402.00 C 346.43 388.45 341.67 369.74 353.68 364.68 C 365.68 359.62 373.84 355.70 385.08 351.08 C 396.31 346.45 405.84 342.26 416.69 337.69 C 427.54 333.13 437.38 328.63 448.08 324.08 C 458.77 319.52 469.42 315.60 480.07 311.07 C 490.73 306.55 500.91 301.30 512.00 298.00
C 522.12 298.27 531.97 307.79 542.02 309.98 C 552.08 312.16 561.59 319.43 571.69 322.31 C 581.80 325.18 591.53 331.96 602.00 334.00
C 601.06 339.03 593.91 340.98 593.00 346.00
C 601.34 348.59 609.68 351.25 618.00 354.00
C 614.75 364.57 608.86 374.05 604.00 384.00
C 573.57 369.93 542.52 357.82 512.00 344.00
M 564.00 405.00 
C 548.22 426.97 531.32 450.55 513.00 470.00
C 511.63 463.35 507.49 457.63 506.00 451.00
C 466.41 466.39 433.03 489.21 411.23 528.23 C 389.43 567.25 389.21 626.42 415.00 665.00
C 390.99 648.70 377.98 629.92 363.23 604.77 C 348.48 579.62 356.74 541.31 369.77 516.77 C 382.80 492.23 397.79 471.90 419.25 453.25 C 440.70 434.59 465.07 422.03 491.00 412.00
C 488.59 404.89 484.72 398.29 483.00 391.00
C 509.81 396.34 536.95 400.47 564.00 405.00 Z"/>
</g>
<g fill="#B67FC8">
<path d="
M 511.00 490.00 
C 511.95 494.65 512.97 511.42 510.00 515.00
C 519.82 510.17 530.87 506.09 540.77 501.77 C 550.67 497.45 559.99 492.48 569.30 487.30 C 578.61 482.13 587.22 475.93 595.75 469.75 C 604.29 463.57 611.17 457.42 618.75 449.75 C 626.34 442.09 631.95 435.24 638.75 426.75 C 645.56 418.26 651.37 410.56 656.25 400.25 C 661.12 389.93 667.67 383.79 670.07 371.07 C 672.47 358.36 684.94 362.92 695.00 369.00
C 688.95 341.91 682.47 314.96 676.00 288.00
C 655.51 305.87 634.30 323.24 614.00 341.00
C 620.74 342.77 627.13 345.80 634.00 347.00
C 626.26 366.62 617.15 388.93 603.25 405.25 C 589.34 421.56 573.95 436.60 555.08 446.08 C 536.20 455.55 526.07 476.14 511.00 490.00 Z"/>
</g>
<g fill="#A644C5">
<path d="
M 386.00 464.00 
C 391.70 455.08 385.39 440.85 388.00 431.00 C 390.61 421.15 383.42 405.13 389.00 397.00
C 393.32 390.70 407.32 390.47 413.92 385.92 C 420.53 381.38 430.85 379.00 438.31 375.31 C 445.76 371.61 455.18 368.10 462.92 364.92 C 470.67 361.75 479.80 356.64 487.77 354.77 C 495.74 352.90 504.02 343.77 512.00 344.00
C 508.95 337.84 513.59 327.88 512.00 321.00 C 510.41 314.12 513.19 305.08 512.00 298.00
C 500.91 301.30 490.73 306.55 480.07 311.07 C 469.42 315.60 458.77 319.52 448.08 324.08 C 437.38 328.63 427.54 333.13 416.69 337.69 C 405.84 342.26 396.31 346.45 385.08 351.08 C 373.84 355.70 365.68 359.62 353.68 364.68 C 341.67 369.74 346.43 388.45 346.00 402.00 C 345.57 415.55 346.11 432.79 346.00 447.00 C 345.89 461.21 345.87 477.66 346.00 492.00 C 346.13 506.34 345.07 521.45 347.00 535.00
C 352.31 508.05 368.00 484.85 386.00 464.00 Z"/>
</g>
<g fill="#401B68">
<path d="
M 512.00 344.00 
C 542.52 357.82 573.57 369.93 604.00 384.00
C 608.86 374.05 614.75 364.57 618.00 354.00
C 609.68 351.25 601.34 348.59 593.00 346.00
C 593.91 340.98 601.06 339.03 602.00 334.00
C 591.53 331.96 581.80 325.18 571.69 322.31 C 561.59 319.43 552.08 312.16 542.02 309.98 C 531.97 307.79 522.12 298.27 512.00 298.00
C 513.19 305.08 510.41 314.12 512.00 321.00 C 513.59 327.88 508.95 337.84 512.00 344.00 Z"/>
</g>
<g fill="#8246A3">
<path d="
M 564.00 405.00 
C 536.95 400.47 509.81 396.34 483.00 391.00
C 484.72 398.29 488.59 404.89 491.00 412.00
C 465.07 422.03 440.70 434.59 419.25 453.25 C 397.79 471.90 382.80 492.23 369.77 516.77 C 356.74 541.31 348.48 579.62 363.23 604.77 C 377.98 629.92 390.99 648.70 415.00 665.00
C 389.21 626.42 389.43 567.25 411.23 528.23 C 433.03 489.21 466.41 466.39 506.00 451.00
C 507.49 457.63 511.63 463.35 513.00 470.00
C 531.32 450.55 548.22 426.97 564.00 405.00 Z"/>
</g>
<g fill="#A844C5">
<path d="
M 512.00 723.00 
C 510.81 715.92 513.59 706.88 512.00 700.00 C 510.41 693.12 515.05 683.16 512.00 677.00
C 504.28 677.00 496.96 667.30 490.23 663.77 C 483.50 660.24 478.63 652.77 473.25 646.75 C 467.87 640.73 463.45 632.67 460.32 624.68 C 457.20 616.68 455.00 605.16 455.00 596.00
C 454.75 593.43 454.69 590.54 455.00 588.00
C 455.66 554.81 480.82 527.59 510.00 515.00
C 512.97 511.42 511.95 494.65 511.00 490.00
C 507.52 483.81 505.37 477.23 502.00 471.00
C 492.09 475.61 481.36 480.26 472.25 486.25 C 463.13 492.23 456.19 498.39 448.25 506.25 C 440.31 514.11 434.49 521.22 428.92 530.92 C 423.36 540.62 418.82 550.69 415.98 561.98 C 413.13 573.26 411.12 589.77 412.00 602.00 C 412.89 614.23 416.85 627.56 420.68 638.32 C 424.51 649.08 429.73 658.30 436.08 666.92 C 442.43 675.53 448.66 683.57 456.75 690.25 C 464.84 696.92 473.53 704.53 482.75 708.25 C 491.98 711.96 502.08 723.00 512.00 723.00 Z"/>
</g>
<g fill="#411C68">
<path d="
M 512.00 677.00 
C 515.05 683.16 510.41 693.12 512.00 700.00 C 513.59 706.88 510.81 715.92 512.00 723.00
C 553.36 704.81 588.48 685.12 623.25 654.25 C 658.01 623.38 679.02 574.93 676.00 528.00
C 665.57 527.82 655.46 528.25 645.00 528.00 C 634.54 527.75 624.57 528.47 614.00 528.00 C 603.43 527.53 593.84 529.01 583.00 528.00 C 572.16 526.99 561.29 527.09 564.00 540.00 C 566.71 552.91 561.96 557.82 564.00 570.00
C 585.34 570.00 606.66 570.00 628.00 570.00
C 627.83 579.65 621.59 589.10 616.92 596.92 C 612.25 604.73 606.73 610.85 600.25 617.25 C 593.76 623.64 587.85 629.72 580.70 634.70 C 573.54 639.67 566.49 646.16 558.75 649.75 C 551.00 653.33 543.91 661.56 536.08 664.08 C 528.24 666.59 520.06 677.00 512.00 677.00 Z"/>
</g>
</svg>