<svg width="2053" height="438" viewBox="0 0 2053 438" fill="none" xmlns="http://www.w3.org/2000/svg">
<path d="M571.04 140.667V193.587H544.58C518.82 193.587 505.94 206.607 505.94 232.647V360.327H451.76V228.447C451.76 196.807 458.9 174.267 473.18 160.827C487.46 147.387 507.76 140.667 534.08 140.667H571.04ZM650.607 262.467C652.287 270.867 655.087 278.287 659.007 284.727C663.207 290.887 668.107 296.207 673.707 300.687C679.587 304.887 686.027 308.107 693.027 310.347C700.027 312.307 707.167 313.287 714.447 313.287C725.647 313.287 736.427 310.767 746.787 305.727C757.147 300.687 765.687 293.127 772.407 283.047L815.247 314.127C810.767 322.527 805.027 329.947 798.027 336.387C791.027 342.547 783.187 347.727 774.507 351.927C765.827 356.127 756.587 359.347 746.787 361.587C736.987 363.827 726.907 364.947 716.547 364.947C701.427 364.947 686.587 362.567 672.027 357.807C657.467 353.047 644.447 345.907 632.967 336.387C621.487 326.587 612.107 314.407 604.827 299.847C597.827 285.007 594.327 267.647 594.327 247.767C594.327 228.727 597.547 212.207 603.987 198.207C610.707 183.927 619.387 172.027 630.027 162.507C640.947 152.987 653.127 145.847 666.567 141.087C680.287 136.327 694.147 133.947 708.147 133.947C721.587 133.947 734.747 136.187 747.627 140.667C760.507 144.867 771.987 151.447 782.067 160.407C792.147 169.087 800.127 180.007 806.007 193.167C812.167 206.327 815.247 221.727 815.247 239.367V262.467H650.607ZM758.127 226.767C758.127 220.047 756.727 214.167 753.927 209.127C751.127 203.807 747.347 199.467 742.587 196.107C738.107 192.467 732.787 189.667 726.627 187.707C720.467 185.747 714.167 184.767 707.727 184.767C701.847 184.767 695.967 185.607 690.087 187.287C684.487 188.967 679.167 191.487 674.127 194.847C669.087 198.207 664.607 202.547 660.687 207.867C656.767 213.187 653.827 219.487 651.867 226.767H758.127ZM1121.24 245.247V297.327C1118.16 307.687 1112.56 317.067 1104.44 325.467C1096.32 333.867 1086.66 341.147 1075.46 347.307C1064.26 353.187 1051.8 357.667 1038.08 360.747C1024.36 364.107 1010.36 365.787 996.083 365.787C978.163 365.787 960.243 362.987 942.323 357.387C924.683 351.787 908.723 342.827 894.443 330.507C880.443 318.187 868.963 302.367 860.003 283.047C851.323 263.727 846.983 240.207 846.983 212.487C846.983 185.887 851.183 163.067 859.583 144.027C868.263 124.707 879.463 108.887 893.183 96.5667C907.183 83.9667 922.863 74.7267 940.223 68.8467C957.863 62.9667 975.783 60.0267 993.983 60.0267C1007.14 60.0267 1020.02 61.5667 1032.62 64.6467C1045.5 67.4467 1057.4 71.6467 1068.32 77.2467C1079.52 82.8467 1089.6 89.8467 1098.56 98.2467C1107.8 106.367 1115.22 115.747 1120.82 126.387L1076.3 161.247C1067.9 145.287 1056.28 133.247 1041.44 125.127C1026.88 117.007 1011.48 112.947 995.243 112.947C984.043 112.947 972.983 115.047 962.063 119.247C951.143 123.167 941.483 129.327 933.083 137.727C924.683 145.847 917.823 156.207 912.503 168.807C907.463 181.127 904.943 195.687 904.943 212.487C904.943 229.847 907.743 244.827 913.343 257.427C919.223 269.747 926.643 279.827 935.603 287.667C944.843 295.507 955.063 301.247 966.263 304.887C977.743 308.527 989.083 310.347 1000.28 310.347C1015.4 310.347 1028.98 307.407 1041.02 301.527C1053.06 295.647 1061.04 287.387 1064.96 276.747V251.547H982.643V202.827H1120.82V245.247H1121.24ZM1366.26 140.247V270.027C1366.26 286.267 1363.32 300.407 1357.44 312.447C1351.56 324.487 1343.86 334.567 1334.34 342.687C1324.82 350.807 1313.9 356.827 1301.58 360.747C1289.26 364.947 1276.8 367.047 1264.2 367.047C1251.32 367.047 1238.72 364.947 1226.4 360.747C1214.36 356.827 1203.44 350.807 1193.64 342.687C1184.12 334.567 1176.42 324.487 1170.54 312.447C1164.66 300.407 1161.72 286.267 1161.72 270.027V140.247H1215.9V270.027C1215.9 277.587 1217.3 284.307 1220.1 290.187C1222.9 295.787 1226.54 300.547 1231.02 304.467C1235.5 308.107 1240.54 310.907 1246.14 312.867C1252.02 314.827 1258.04 315.807 1264.2 315.807C1270.08 315.807 1275.82 314.827 1281.42 312.867C1287.3 310.907 1292.48 308.107 1296.96 304.467C1301.44 300.547 1305.08 295.787 1307.88 290.187C1310.68 284.307 1312.08 277.587 1312.08 270.027V140.247H1366.26ZM1615.88 139.407V359.907H1561.7V334.287C1553.58 344.367 1543.64 351.927 1531.88 356.967C1520.12 362.007 1507.94 364.527 1495.34 364.527C1483.3 364.527 1471.26 362.147 1459.22 357.387C1447.18 352.627 1436.4 345.487 1426.88 335.967C1417.64 326.447 1410.08 314.547 1404.2 300.267C1398.32 285.707 1395.38 268.767 1395.38 249.447C1395.38 230.127 1398.32 213.327 1404.2 199.047C1410.08 184.487 1417.64 172.447 1426.88 162.927C1436.4 153.407 1447.18 146.267 1459.22 141.507C1471.26 136.747 1483.3 134.367 1495.34 134.367C1507.94 134.367 1520.12 136.887 1531.88 141.927C1543.64 146.967 1553.58 154.527 1561.7 164.607V139.407H1615.88ZM1450.4 249.447C1450.4 259.807 1451.94 269.047 1455.02 277.167C1458.38 285.007 1462.58 291.587 1467.62 296.907C1472.94 301.947 1478.96 305.867 1485.68 308.667C1492.4 311.187 1499.26 312.447 1506.26 312.447C1513.26 312.447 1519.98 311.187 1526.42 308.667C1533.14 305.867 1539.02 301.947 1544.06 296.907C1549.38 291.587 1553.58 285.007 1556.66 277.167C1560.02 269.047 1561.7 259.807 1561.7 249.447C1561.7 238.807 1560.02 229.567 1556.66 221.727C1553.58 213.887 1549.38 207.447 1544.06 202.407C1539.02 197.087 1533.14 193.167 1526.42 190.647C1519.98 187.847 1513.26 186.447 1506.26 186.447C1499.26 186.447 1492.4 187.847 1485.68 190.647C1478.96 193.167 1472.94 197.087 1467.62 202.407C1462.58 207.447 1458.38 213.887 1455.02 221.727C1451.94 229.567 1450.4 238.807 1450.4 249.447ZM1782.64 140.667V193.587H1756.18C1730.42 193.587 1717.54 206.607 1717.54 232.647V360.327H1663.36V228.447C1663.36 196.807 1670.5 174.267 1684.78 160.827C1699.06 147.387 1719.36 140.667 1745.68 140.667H1782.64ZM2027.27 47.8467V359.907H1973.09V334.287C1964.97 344.367 1955.03 351.927 1943.27 356.967C1931.51 362.007 1919.33 364.527 1906.73 364.527C1894.69 364.527 1882.65 362.147 1870.61 357.387C1858.57 352.627 1847.79 345.487 1838.27 335.967C1829.03 326.447 1821.47 314.547 1815.59 300.267C1809.71 285.707 1806.77 268.767 1806.77 249.447C1806.77 230.127 1809.71 213.327 1815.59 199.047C1821.47 184.487 1829.03 172.447 1838.27 162.927C1847.79 153.407 1858.57 146.267 1870.61 141.507C1882.65 136.747 1894.69 134.367 1906.73 134.367C1919.33 134.367 1931.51 136.887 1943.27 141.927C1955.03 146.967 1964.97 154.527 1973.09 164.607V47.8467H2027.27ZM1861.79 249.447C1861.79 259.807 1863.33 269.047 1866.41 277.167C1869.77 285.007 1873.97 291.587 1879.01 296.907C1884.33 301.947 1890.35 305.867 1897.07 308.667C1903.79 311.187 1910.65 312.447 1917.65 312.447C1924.65 312.447 1931.37 311.187 1937.81 308.667C1944.53 305.867 1950.41 301.947 1955.45 296.907C1960.77 291.587 1964.97 285.007 1968.05 277.167C1971.41 269.047 1973.09 259.807 1973.09 249.447C1973.09 238.807 1971.41 229.567 1968.05 221.727C1964.97 213.887 1960.77 207.447 1955.45 202.407C1950.41 197.087 1944.53 193.167 1937.81 190.647C1931.37 187.847 1924.65 186.447 1917.65 186.447C1910.65 186.447 1903.79 187.847 1897.07 190.647C1890.35 193.167 1884.33 197.087 1879.01 202.407C1873.97 207.447 1869.77 213.887 1866.41 221.727C1863.33 229.567 1861.79 238.807 1861.79 249.447Z" fill="white"/>
<path d="M184.421 414.161V390.981L196.796 384.096C224.457 368.704 245.026 355.334 259.421 343.387C265.979 337.944 275.955 328.126 280.723 322.42C290.639 310.554 299.267 294.607 300.581 285.717L300.858 283.842H268.639H236.421V263.217V242.592L292.592 242.411L348.762 242.23L348.58 246.411C347.602 268.809 346.219 278.839 341.906 294.842C337.049 312.857 327.397 331.631 314.915 347.342C309.689 353.919 291.892 371.77 284.921 377.426C262.343 395.746 237.858 411.054 204.235 427.871C193.821 433.08 185.103 437.342 184.86 437.342C184.614 437.342 184.421 427.159 184.421 414.161Z" fill="white" stroke="white"/>
<path d="M173.671 432.123C158.665 424.747 151.31 420.454 141.171 413.154C132.955 407.237 128.757 403.71 122.671 397.606C96.7332 371.592 83.2572 337.878 84.5902 302.342C85.2482 284.798 88.8932 270.237 96.7172 253.894C110.372 225.373 134.955 202.361 166.868 188.227C171.101 186.352 174.654 184.908 174.762 185.017C174.871 185.126 176.909 189.462 179.289 194.654L183.619 204.092L183.942 215.592C184.12 221.917 184.176 227.257 184.068 227.459C183.96 227.661 181.428 229.077 178.44 230.605C157.589 241.27 143.775 254.419 135.13 271.832C128.731 284.718 126.149 298.577 127.395 313.342C128.468 326.063 130.974 335.021 136.695 346.592C140.75 354.793 145.239 361.111 151.921 368.024C159.879 376.257 171.419 384.673 181.584 389.659L184.421 391.05V413.946C184.421 431.943 184.287 436.837 183.796 436.817C183.452 436.804 178.896 434.691 173.671 432.123Z" fill="white" stroke="white"/>
<path d="M183.996 216.41C183.899 210.186 184.625 204.613 184.5 204.407C184.374 204.201 184.128 203.907 184.5 203.907C185.238 203.907 190.205 197.982 199.823 185.852C203.206 181.583 206.986 176.854 208.222 175.342C209.459 173.83 211.813 170.849 213.455 168.717C215.098 166.585 216.811 164.842 217.263 164.842C218.218 164.842 230.211 158.647 234.215 156.085C235.714 155.126 237.126 154.342 240.013 152.342C240.396 152.342 242.618 150.734 246.921 147.341C247.609 146.799 248.426 146.352 248.738 146.349C249.05 146.345 250.078 145.498 251.023 144.467C251.969 143.436 253.964 141.484 255.456 140.128C262.644 133.603 273.022 123.166 275.171 120.301C275.721 119.568 277.171 117.652 278.394 116.044C280.769 112.919 285.421 106.022 285.421 105.626C285.421 105.494 286.962 102.845 288.845 99.7394C295.398 88.9334 307.662 62.3564 306.577 61.3154C306.354 61.1014 303.696 60.1114 300.671 59.1164C291.783 56.1934 287.921 54.7364 287.921 54.3034C287.921 53.3374 295.159 46.8424 296.236 46.8424C296.49 46.8424 297.264 46.2244 297.956 45.4674C300.164 43.0544 305.511 38.5874 306.017 38.7314C306.286 38.8084 306.613 38.4654 306.743 37.9704C306.872 37.4744 307.736 36.6244 308.662 36.0804C311.065 34.6704 319.3 27.8794 319.62 27.0444C319.768 26.6574 320.153 26.3424 320.477 26.3424C320.8 26.3424 321.762 25.6644 322.617 24.8344C328.934 18.7044 332.516 15.5014 334.671 14.0564C336.046 13.1344 338.521 11.1174 340.171 9.57339C341.821 8.03039 343.571 6.5474 344.652 4.9454C344.868 5.1404 345.769 4.7464 346.655 4.0704C348.579 2.6034 348.921 2.55441 348.921 3.74841C348.921 4.24641 349.404 6.44041 349.994 8.62341C350.585 10.8064 351.246 13.6044 351.464 14.8424C352.107 18.4984 358.624 45.5244 366.696 78.0084C367.095 79.6114 367.421 81.2294 367.421 81.6024C367.421 82.4144 364.379 81.4344 353.498 77.1184C349.552 75.5534 346.242 74.3544 346.142 74.4554C346.041 74.5564 345.299 76.6574 344.492 79.1254C337.387 100.868 323.443 125.859 307.686 145.092C297.646 157.349 284.003 170.964 272.471 180.24C252.879 195.998 225.246 211.335 193.858 223.873C191.005 225.012 187.658 226.346 186.421 226.837L184.171 227.729L183.996 216.41Z" fill="white" stroke="white"/>
<path d="M286 53.4067L348.5 0.906677L367.5 82.4067L346.5 74.9067L184 227.407V202.667L200.5 182.407L215.5 164.407C220.5 162.907 291 120.907 306 60.9067L286 53.4067Z" fill="white" stroke="white"/>
<path d="M287.78 54.6175L350.449 1.90668L369.5 83.7339L346 75.4067L342.5 80.9067L322 113.407L238 192.407L202.5 218.407L193 223.907L184 227.907V206.907L217.09 166.063C224.5 163.907 292.794 122.389 307.834 62.1476L287.78 54.6175Z" fill="white" stroke="white"/>
<path d="M251.25 84.5707C247.675 83.0517 241.938 80.6177 238.5 79.1617C235.062 77.7067 227.75 74.5417 222.25 72.1307C216.75 69.7187 201.9 63.3077 189.25 57.8847L166.25 48.0247L166.12 24.9097C165.997 3.02568 166.036 1.81269 166.87 2.12269C167.354 2.30169 177.475 6.41969 189.361 11.2737C209.578 19.5297 210.953 20.1697 210.695 21.1977C210.323 22.6807 211.264 23.1637 212.126 21.9327C212.802 20.9667 213.072 21.0417 222.376 24.7757C227.633 26.8847 231.837 28.7647 231.721 28.9547C231.457 29.3807 233.375 30.6467 234.851 31.0217C235.457 31.1747 236.019 31.1107 236.101 30.8777C236.183 30.6447 240.75 32.2387 246.25 34.4187C251.75 36.5987 256.531 38.3877 256.875 38.3947C258.175 38.4207 257.35 39.4087 252.241 43.9377C249.348 46.5027 247.052 48.8127 247.138 49.0687C247.223 49.3247 252.683 51.3727 259.271 53.6197C265.86 55.8657 271.635 57.8517 272.106 58.0317C272.859 58.3207 272.658 59.0057 270.426 63.7587C263.201 79.1437 258.995 87.4037 258.404 87.3697C258.044 87.3487 254.825 86.0897 251.25 84.5707Z" fill="white" stroke="white"/>
<path d="M0.5 155.352V71.6287L9.125 67.9427C13.868 65.9157 24.725 61.2837 33.25 57.6497C58.029 47.0887 87.187 34.6017 94.5 31.4187C111.2 24.1517 164.908 1.90668 165.753 1.90668C165.883 1.90668 166.048 12.3127 166.12 25.0317L166.25 48.1567L154.5 53.1787C148.038 55.9417 140.079 59.3167 136.813 60.6787C133.548 62.0417 111.16 71.5987 87.063 81.9167L43.25 100.679L43.122 133.094L42.993 165.508L39.072 169.833C21.688 189.005 7.70901 213.169 2.47501 233.091C1.69001 236.08 0.924987 238.649 0.773987 238.8C0.622987 238.95 0.5 201.398 0.5 155.352Z" fill="white" stroke="white"/>
<path d="M67.007 367.597C59.683 361.931 54.961 357.715 48.229 350.828C28.489 330.631 15.844 309.534 10.245 287.455C8.20903 279.426 8.16504 278.297 9.52304 268.806C13.072 244.003 22.628 219.503 36.886 198.657C49.423 180.327 67.135 161.947 85.75 147.948C100.853 136.591 120.272 125.793 138.108 118.833C141.88 117.361 144.969 115.932 144.971 115.657C144.974 115.382 143.32 110.77 141.296 105.407C138.821 98.8487 137.818 95.6087 138.233 95.5097C139.255 95.2657 217.937 108.677 218.441 109.181C218.59 109.33 218.466 109.846 218.166 110.327C217.338 111.652 200.168 134.121 193.268 142.907C184.851 153.625 176.567 164.29 172.394 169.782C170.46 172.326 168.727 174.407 168.544 174.407C168.361 174.407 167.338 172.326 166.274 169.782C162.68 161.201 159.859 155.407 159.275 155.407C157.561 155.407 142.231 162.453 133.25 167.368C123.91 172.479 109.711 182.047 102.5 188.088C79.723 207.171 64.488 229.06 55.945 254.977C51.089 269.705 49.16 283.474 49.656 299.856C50.448 326.034 57.553 349.549 70.709 369.532C71.207 370.288 71.533 370.901 71.433 370.893C71.332 370.884 69.341 369.402 67.007 367.597Z" fill="white" stroke="white"/>
<path d="M259 38.9067L166.5 1.40668V48.9067L258.5 87.9067L273.5 57.9067L248 48.9067L259 38.9067Z" fill="white" stroke="white"/>
</svg>
