<svg width="2071" height="438" viewBox="0 0 2071 438" fill="none" xmlns="http://www.w3.org/2000/svg">
<path d="M589.54 139.502V192.422H563.08C537.32 192.422 524.44 205.442 524.44 231.482V359.162H470.26V227.282C470.26 195.642 477.4 173.102 491.68 159.662C505.96 146.222 526.26 139.502 552.58 139.502H589.54ZM669.107 261.302C670.787 269.702 673.587 277.122 677.507 283.562C681.707 289.722 686.607 295.042 692.207 299.522C698.087 303.722 704.527 306.942 711.527 309.182C718.527 311.142 725.667 312.122 732.947 312.122C744.147 312.122 754.927 309.602 765.287 304.562C775.647 299.522 784.187 291.962 790.907 281.882L833.747 312.962C829.267 321.362 823.527 328.782 816.527 335.222C809.527 341.382 801.687 346.562 793.007 350.762C784.327 354.962 775.087 358.182 765.287 360.422C755.487 362.662 745.407 363.782 735.047 363.782C719.927 363.782 705.087 361.402 690.527 356.642C675.967 351.882 662.947 344.742 651.467 335.222C639.987 325.422 630.607 313.242 623.327 298.682C616.327 283.842 612.827 266.482 612.827 246.602C612.827 227.562 616.047 211.042 622.487 197.042C629.207 182.762 637.887 170.862 648.527 161.342C659.447 151.822 671.627 144.682 685.067 139.922C698.787 135.162 712.647 132.782 726.647 132.782C740.087 132.782 753.247 135.022 766.127 139.502C779.007 143.702 790.487 150.282 800.567 159.242C810.647 167.922 818.627 178.842 824.507 192.002C830.667 205.162 833.747 220.562 833.747 238.202V261.302H669.107ZM776.627 225.602C776.627 218.882 775.227 213.002 772.427 207.962C769.627 202.642 765.847 198.302 761.087 194.942C756.607 191.302 751.287 188.502 745.127 186.542C738.967 184.582 732.667 183.602 726.227 183.602C720.347 183.602 714.467 184.442 708.587 186.122C702.987 187.802 697.667 190.322 692.627 193.682C687.587 197.042 683.107 201.382 679.187 206.702C675.267 212.022 672.327 218.322 670.367 225.602H776.627ZM1139.74 244.082V296.162C1136.66 306.522 1131.06 315.902 1122.94 324.302C1114.82 332.702 1105.16 339.982 1093.96 346.142C1082.76 352.022 1070.3 356.502 1056.58 359.582C1042.86 362.942 1028.86 364.622 1014.58 364.622C996.663 364.622 978.743 361.822 960.823 356.222C943.183 350.622 927.223 341.662 912.943 329.342C898.943 317.022 887.463 301.202 878.503 281.882C869.823 262.562 865.483 239.042 865.483 211.322C865.483 184.722 869.683 161.902 878.083 142.862C886.763 123.542 897.963 107.722 911.683 95.4022C925.683 82.8022 941.363 73.5622 958.723 67.6822C976.363 61.8022 994.283 58.8622 1012.48 58.8622C1025.64 58.8622 1038.52 60.4022 1051.12 63.4822C1064 66.2822 1075.9 70.4822 1086.82 76.0822C1098.02 81.6822 1108.1 88.6822 1117.06 97.0822C1126.3 105.202 1133.72 114.582 1139.32 125.222L1094.8 160.082C1086.4 144.122 1074.78 132.082 1059.94 123.962C1045.38 115.842 1029.98 111.782 1013.74 111.782C1002.54 111.782 991.483 113.882 980.563 118.082C969.643 122.002 959.983 128.162 951.583 136.562C943.183 144.682 936.323 155.042 931.003 167.642C925.963 179.962 923.443 194.522 923.443 211.322C923.443 228.682 926.243 243.662 931.843 256.262C937.723 268.582 945.143 278.662 954.103 286.502C963.343 294.342 973.563 300.082 984.763 303.722C996.243 307.362 1007.58 309.182 1018.78 309.182C1033.9 309.182 1047.48 306.242 1059.52 300.362C1071.56 294.482 1079.54 286.222 1083.46 275.582V250.382H1001.14V201.662H1139.32V244.082H1139.74ZM1384.76 139.082V268.862C1384.76 285.102 1381.82 299.242 1375.94 311.282C1370.06 323.322 1362.36 333.402 1352.84 341.522C1343.32 349.642 1332.4 355.662 1320.08 359.582C1307.76 363.782 1295.3 365.882 1282.7 365.882C1269.82 365.882 1257.22 363.782 1244.9 359.582C1232.86 355.662 1221.94 349.642 1212.14 341.522C1202.62 333.402 1194.92 323.322 1189.04 311.282C1183.16 299.242 1180.22 285.102 1180.22 268.862V139.082H1234.4V268.862C1234.4 276.422 1235.8 283.142 1238.6 289.022C1241.4 294.622 1245.04 299.382 1249.52 303.302C1254 306.942 1259.04 309.742 1264.64 311.702C1270.52 313.662 1276.54 314.642 1282.7 314.642C1288.58 314.642 1294.32 313.662 1299.92 311.702C1305.8 309.742 1310.98 306.942 1315.46 303.302C1319.94 299.382 1323.58 294.622 1326.38 289.022C1329.18 283.142 1330.58 276.422 1330.58 268.862V139.082H1384.76ZM1634.38 138.242V358.742H1580.2V333.122C1572.08 343.202 1562.14 350.762 1550.38 355.802C1538.62 360.842 1526.44 363.362 1513.84 363.362C1501.8 363.362 1489.76 360.982 1477.72 356.222C1465.68 351.462 1454.9 344.322 1445.38 334.802C1436.14 325.282 1428.58 313.382 1422.7 299.102C1416.82 284.542 1413.88 267.602 1413.88 248.282C1413.88 228.962 1416.82 212.162 1422.7 197.882C1428.58 183.322 1436.14 171.282 1445.38 161.762C1454.9 152.242 1465.68 145.102 1477.72 140.342C1489.76 135.582 1501.8 133.202 1513.84 133.202C1526.44 133.202 1538.62 135.722 1550.38 140.762C1562.14 145.802 1572.08 153.362 1580.2 163.442V138.242H1634.38ZM1468.9 248.282C1468.9 258.642 1470.44 267.882 1473.52 276.002C1476.88 283.842 1481.08 290.422 1486.12 295.742C1491.44 300.782 1497.46 304.702 1504.18 307.502C1510.9 310.022 1517.76 311.282 1524.76 311.282C1531.76 311.282 1538.48 310.022 1544.92 307.502C1551.64 304.702 1557.52 300.782 1562.56 295.742C1567.88 290.422 1572.08 283.842 1575.16 276.002C1578.52 267.882 1580.2 258.642 1580.2 248.282C1580.2 237.642 1578.52 228.402 1575.16 220.562C1572.08 212.722 1567.88 206.282 1562.56 201.242C1557.52 195.922 1551.64 192.002 1544.92 189.482C1538.48 186.682 1531.76 185.282 1524.76 185.282C1517.76 185.282 1510.9 186.682 1504.18 189.482C1497.46 192.002 1491.44 195.922 1486.12 201.242C1481.08 206.282 1476.88 212.722 1473.52 220.562C1470.44 228.402 1468.9 237.642 1468.9 248.282ZM1801.14 139.502V192.422H1774.68C1748.92 192.422 1736.04 205.442 1736.04 231.482V359.162H1681.86V227.282C1681.86 195.642 1689 173.102 1703.28 159.662C1717.56 146.222 1737.86 139.502 1764.18 139.502H1801.14ZM2045.77 46.6822V358.742H1991.59V333.122C1983.47 343.202 1973.53 350.762 1961.77 355.802C1950.01 360.842 1937.83 363.362 1925.23 363.362C1913.19 363.362 1901.15 360.982 1889.11 356.222C1877.07 351.462 1866.29 344.322 1856.77 334.802C1847.53 325.282 1839.97 313.382 1834.09 299.102C1828.21 284.542 1825.27 267.602 1825.27 248.282C1825.27 228.962 1828.21 212.162 1834.09 197.882C1839.97 183.322 1847.53 171.282 1856.77 161.762C1866.29 152.242 1877.07 145.102 1889.11 140.342C1901.15 135.582 1913.19 133.202 1925.23 133.202C1937.83 133.202 1950.01 135.722 1961.77 140.762C1973.53 145.802 1983.47 153.362 1991.59 163.442V46.6822H2045.77ZM1880.29 248.282C1880.29 258.642 1881.83 267.882 1884.91 276.002C1888.27 283.842 1892.47 290.422 1897.51 295.742C1902.83 300.782 1908.85 304.702 1915.57 307.502C1922.29 310.022 1929.15 311.282 1936.15 311.282C1943.15 311.282 1949.87 310.022 1956.31 307.502C1963.03 304.702 1968.91 300.782 1973.95 295.742C1979.27 290.422 1983.47 283.842 1986.55 276.002C1989.91 267.882 1991.59 258.642 1991.59 248.282C1991.59 237.642 1989.91 228.402 1986.55 220.562C1983.47 212.722 1979.27 206.282 1973.95 201.242C1968.91 195.922 1963.03 192.002 1956.31 189.482C1949.87 186.682 1943.15 185.282 1936.15 185.282C1929.15 185.282 1922.29 186.682 1915.57 189.482C1908.85 192.002 1902.83 195.922 1897.51 201.242C1892.47 206.282 1888.27 212.722 1884.91 220.562C1881.83 228.402 1880.29 237.642 1880.29 248.282Z" fill="white"/>
<path d="M184.421 413.497V390.317L196.796 383.432C224.457 368.04 245.026 354.67 259.421 342.723C265.979 337.28 275.955 327.462 280.723 321.756C290.639 309.89 299.267 293.943 300.581 285.053L300.858 283.178H268.639H236.421V262.553V241.928L292.592 241.747L348.762 241.566L348.58 245.747C347.602 268.145 346.219 278.175 341.906 294.178C337.049 312.193 327.397 330.967 314.915 346.678C309.689 353.255 291.892 371.106 284.921 376.762C262.343 395.082 237.858 410.39 204.235 427.207C193.821 432.416 185.103 436.678 184.86 436.678C184.614 436.678 184.421 426.495 184.421 413.497Z" fill="#3C1868" stroke="#3C1868"/>
<path d="M173.671 431.459C158.665 424.083 151.31 419.79 141.171 412.49C132.955 406.573 128.757 403.046 122.671 396.942C96.7332 370.928 83.2572 337.214 84.5902 301.678C85.2482 284.134 88.8932 269.573 96.7172 253.23C110.372 224.709 134.955 201.697 166.868 187.563C171.101 185.688 174.654 184.244 174.762 184.353C174.871 184.462 176.909 188.798 179.289 193.99L183.619 203.428L183.942 214.928C184.12 221.253 184.176 226.593 184.068 226.795C184.068 226.864 181.428 228.413 178.44 229.941C157.589 240.606 143.775 253.755 135.13 271.168C128.731 284.054 126.149 297.913 127.395 312.678C128.468 325.399 130.974 334.357 136.695 345.928C140.75 354.129 145.239 360.447 151.921 367.36C159.879 375.593 171.419 384.009 181.584 388.995L184.421 390.386V413.282C184.421 431.279 184.287 436.173 183.796 436.153C183.452 436.14 178.896 434.027 173.671 431.459Z" fill="#AE44C9" stroke="#AE44C9"/>
<path d="M185 214.242C184.903 208.018 184.625 203.948 184.5 203.742C184.374 203.536 185.128 203.742 185.5 203.742C186.238 203.742 190.205 197.318 199.823 185.188C203.206 180.919 206.986 176.19 208.222 174.678C209.459 173.166 211.813 170.185 213.455 168.053C215.098 165.921 216.811 164.178 217.263 164.178C218.218 164.178 230.211 157.983 234.215 155.421C235.714 154.462 237.126 153.678 240.013 151.678C240.396 151.678 242.618 150.07 246.921 146.677C247.609 146.135 248.426 145.688 248.738 145.685C249.05 145.681 250.078 144.834 251.023 143.803C251.969 142.772 253.964 140.82 255.456 139.464C262.644 132.939 273.022 122.502 275.171 119.637C275.721 118.904 277.171 116.988 278.394 115.38C280.769 112.255 285.421 105.358 285.421 104.962C285.421 104.83 286.962 102.181 288.845 99.0749C295.398 88.2689 307.662 61.6919 306.577 60.6509C306.354 60.4369 303.696 59.4469 300.671 58.4519C291.783 55.5289 287.921 54.0719 287.921 53.6389C287.921 52.6729 295.159 46.1779 296.236 46.1779C296.49 46.1779 297.264 45.5599 297.956 44.8029C300.164 42.3899 305.511 37.9229 306.017 38.0669C306.286 38.1439 306.613 37.8009 306.743 37.3059C306.872 36.8099 307.736 35.9599 308.662 35.4159C311.065 34.0059 319.3 27.2149 319.62 26.3799C319.768 25.9929 320.153 25.6779 320.477 25.6779C320.8 25.6779 321.762 24.9999 322.617 24.1699C328.934 18.0399 332.516 14.8369 334.671 13.3919C336.046 12.4699 338.521 10.4529 340.171 8.90891C341.821 7.36591 343.919 6.34419 345 4.74219C348.348 2.20346 345.769 4.08191 346.655 3.40591C348.579 1.93891 348.921 1.88992 348.921 3.08392C348.921 3.58192 349.404 5.77592 349.994 7.95892C350.585 10.1419 351.246 12.9399 351.464 14.1779C352.107 17.8339 358.624 44.8599 366.696 77.3439C367.095 78.9469 367.421 80.5649 367.421 80.9379C367.421 81.7499 364.379 80.7699 353.498 76.4539C349.552 74.8889 346.242 73.6899 346.142 73.7909C346.041 73.8919 345.299 75.9929 344.492 78.4609C337.387 100.204 323.443 125.195 307.686 144.428C297.646 156.685 284.003 170.3 272.471 179.576C252.879 195.334 225.388 210.204 194 222.742C191.147 223.881 186.237 225.751 185 226.242L185 224.742L185 214.242Z" fill="#B97DC6" stroke="#B97DC6"/>
<path d="M286.28 53.953L348.949 1.24219L368 83.0695L344.5 74.7422L341 80.2422L320.5 112.742L236.5 191.742L201 217.742L191.5 223.242L185 226.242L184.5 203.242L217 163.742C224.41 161.586 291.294 121.724 306.334 61.4831L286.28 53.953Z" fill="#B97DC6" stroke="#B97DC6"/>
<path d="M251.25 83.9063C247.675 82.3873 241.938 79.9533 238.5 78.4973C235.062 77.0423 227.75 73.8773 222.25 71.4663C216.75 69.0543 201.9 62.6433 189.25 57.2203L166.25 47.3603L166.12 24.2453C165.997 2.36125 166.036 1.14827 166.87 1.45827C167.354 1.63727 177.475 5.75527 189.361 10.6093C209.578 18.8653 210.953 19.5052 210.695 20.5332C210.323 22.0162 211.264 22.4993 212.126 21.2683C212.802 20.3023 213.072 20.3772 222.376 24.1112C227.633 26.2202 231.837 28.1003 231.721 28.2903C231.457 28.7163 233.375 29.9823 234.851 30.3573C235.457 30.5103 236.019 30.4463 236.101 30.2133C236.183 29.9803 240.75 31.5743 246.25 33.7543C251.75 35.9343 256.531 37.7233 256.875 37.7303C258.175 37.7563 257.35 38.7443 252.241 43.2733C249.348 45.8383 247.052 48.1483 247.138 48.4043C247.223 48.6603 252.683 50.7083 259.271 52.9553C265.86 55.2013 271.635 57.1873 272.106 57.3673C272.859 57.6563 272.658 58.3413 270.426 63.0943C263.201 78.4793 258.995 86.7393 258.404 86.7053C258.044 86.6843 254.825 85.4253 251.25 83.9063Z" fill="#3C1868" stroke="#3C1868"/>
<path d="M0.5 154.687V70.9642L9.125 67.2782C13.868 65.2512 24.725 60.6192 33.25 56.9852C58.029 46.4242 87.187 33.9372 94.5 30.7542C111.2 23.4872 164.908 1.24219 165.753 1.24219C165.883 1.24219 166.048 11.6482 166.12 24.3672L166.25 47.4922L154.5 52.5142C148.038 55.2772 140.079 58.6522 136.813 60.0142C133.548 61.3772 111.16 70.9342 87.063 81.2522L43.25 100.014L43.122 132.429L42.993 164.843L39.072 169.168C21.688 188.34 7.70901 212.504 2.47501 232.426C1.69001 235.415 0.924987 237.984 0.773987 238.135C0.622987 238.285 0.5 200.733 0.5 154.687Z" fill="#AE44C9" stroke="#AE44C9"/>
<path d="M67.0068 366.932C59.6828 361.266 54.9608 357.05 48.2288 350.163C28.4888 329.966 15.8438 308.869 10.2448 286.79C8.20878 278.761 8.1648 277.632 9.5228 268.141C13.0718 243.338 22.6278 218.838 36.8858 197.992C49.4228 179.662 67.1348 161.282 85.7498 147.283C100.853 135.926 120.272 125.128 138.108 118.168C141.88 116.696 144.969 115.267 144.971 114.992C144.974 114.717 143.32 110.105 141.296 104.742C138.821 98.1842 137.818 94.9442 138.233 94.8452C139.255 94.6012 217.937 108.012 218.441 108.516C218.59 108.665 218.466 109.181 218.166 109.662C217.338 110.987 200.168 133.456 193.268 142.242C184.851 152.96 176.567 163.625 172.394 169.117C170.46 171.661 168.727 173.742 168.544 173.742C168.361 173.742 167.338 171.661 166.274 169.117C162.68 160.536 159.859 154.742 159.275 154.742C157.561 154.742 142.231 161.788 133.25 166.703C123.91 171.814 109.711 181.382 102.5 187.423C79.7228 206.506 64.4878 228.395 55.9448 254.312C51.0888 269.04 49.1598 282.809 49.6558 299.191C50.4478 325.369 57.5528 348.884 70.7088 368.867C71.2068 369.623 71.5328 370.236 71.4328 370.228C71.3318 370.219 69.3408 368.737 67.0068 366.932Z" fill="#8243A5" stroke="#8243A5"/>
<path d="M259 38.2422L166.5 0.742188V48.2422L258.5 87.2422L273.5 57.2422L248 48.2422L259 38.2422Z" fill="#3C1868" stroke="#3C1868"/>
</svg>
