<svg width="2053" height="438" viewBox="0 0 2053 438" fill="none" xmlns="http://www.w3.org/2000/svg">
<mask id="path-1-outside-1_1_82" maskUnits="userSpaceOnUse" x="450.5" y="45.9067" width="1578" height="323" fill="black">
<rect fill="white" x="450.5" y="45.9067" width="1578" height="323"/>
<path d="M571.04 140.667V193.587H544.58C518.82 193.587 505.94 206.607 505.94 232.647V360.327H451.76V228.447C451.76 196.807 458.9 174.267 473.18 160.827C487.46 147.387 507.76 140.667 534.08 140.667H571.04ZM650.607 262.467C652.287 270.867 655.087 278.287 659.007 284.727C663.207 290.887 668.107 296.207 673.707 300.687C679.587 304.887 686.027 308.107 693.027 310.347C700.027 312.307 707.167 313.287 714.447 313.287C725.647 313.287 736.427 310.767 746.787 305.727C757.147 300.687 765.687 293.127 772.407 283.047L815.247 314.127C810.767 322.527 805.027 329.947 798.027 336.387C791.027 342.547 783.187 347.727 774.507 351.927C765.827 356.127 756.587 359.347 746.787 361.587C736.987 363.827 726.907 364.947 716.547 364.947C701.427 364.947 686.587 362.567 672.027 357.807C657.467 353.047 644.447 345.907 632.967 336.387C621.487 326.587 612.107 314.407 604.827 299.847C597.827 285.007 594.327 267.647 594.327 247.767C594.327 228.727 597.547 212.207 603.987 198.207C610.707 183.927 619.387 172.027 630.027 162.507C640.947 152.987 653.127 145.847 666.567 141.087C680.287 136.327 694.147 133.947 708.147 133.947C721.587 133.947 734.747 136.187 747.627 140.667C760.507 144.867 771.987 151.447 782.067 160.407C792.147 169.087 800.127 180.007 806.007 193.167C812.167 206.327 815.247 221.727 815.247 239.367V262.467H650.607ZM758.127 226.767C758.127 220.047 756.727 214.167 753.927 209.127C751.127 203.807 747.347 199.467 742.587 196.107C738.107 192.467 732.787 189.667 726.627 187.707C720.467 185.747 714.167 184.767 707.727 184.767C701.847 184.767 695.967 185.607 690.087 187.287C684.487 188.967 679.167 191.487 674.127 194.847C669.087 198.207 664.607 202.547 660.687 207.867C656.767 213.187 653.827 219.487 651.867 226.767H758.127ZM1121.24 245.247V297.327C1118.16 307.687 1112.56 317.067 1104.44 325.467C1096.32 333.867 1086.66 341.147 1075.46 347.307C1064.26 353.187 1051.8 357.667 1038.08 360.747C1024.36 364.107 1010.36 365.787 996.083 365.787C978.163 365.787 960.243 362.987 942.323 357.387C924.683 351.787 908.723 342.827 894.443 330.507C880.443 318.187 868.963 302.367 860.003 283.047C851.323 263.727 846.983 240.207 846.983 212.487C846.983 185.887 851.183 163.067 859.583 144.027C868.263 124.707 879.463 108.887 893.183 96.5667C907.183 83.9667 922.863 74.7267 940.223 68.8467C957.863 62.9667 975.783 60.0267 993.983 60.0267C1007.14 60.0267 1020.02 61.5667 1032.62 64.6467C1045.5 67.4467 1057.4 71.6467 1068.32 77.2467C1079.52 82.8467 1089.6 89.8467 1098.56 98.2467C1107.8 106.367 1115.22 115.747 1120.82 126.387L1076.3 161.247C1067.9 145.287 1056.28 133.247 1041.44 125.127C1026.88 117.007 1011.48 112.947 995.243 112.947C984.043 112.947 972.983 115.047 962.063 119.247C951.143 123.167 941.483 129.327 933.083 137.727C924.683 145.847 917.823 156.207 912.503 168.807C907.463 181.127 904.943 195.687 904.943 212.487C904.943 229.847 907.743 244.827 913.343 257.427C919.223 269.747 926.643 279.827 935.603 287.667C944.843 295.507 955.063 301.247 966.263 304.887C977.743 308.527 989.083 310.347 1000.28 310.347C1015.4 310.347 1028.98 307.407 1041.02 301.527C1053.06 295.647 1061.04 287.387 1064.96 276.747V251.547H982.643V202.827H1120.82V245.247H1121.24ZM1366.26 140.247V270.027C1366.26 286.267 1363.32 300.407 1357.44 312.447C1351.56 324.487 1343.86 334.567 1334.34 342.687C1324.82 350.807 1313.9 356.827 1301.58 360.747C1289.26 364.947 1276.8 367.047 1264.2 367.047C1251.32 367.047 1238.72 364.947 1226.4 360.747C1214.36 356.827 1203.44 350.807 1193.64 342.687C1184.12 334.567 1176.42 324.487 1170.54 312.447C1164.66 300.407 1161.72 286.267 1161.72 270.027V140.247H1215.9V270.027C1215.9 277.587 1217.3 284.307 1220.1 290.187C1222.9 295.787 1226.54 300.547 1231.02 304.467C1235.5 308.107 1240.54 310.907 1246.14 312.867C1252.02 314.827 1258.04 315.807 1264.2 315.807C1270.08 315.807 1275.82 314.827 1281.42 312.867C1287.3 310.907 1292.48 308.107 1296.96 304.467C1301.44 300.547 1305.08 295.787 1307.88 290.187C1310.68 284.307 1312.08 277.587 1312.08 270.027V140.247H1366.26ZM1615.88 139.407V359.907H1561.7V334.287C1553.58 344.367 1543.64 351.927 1531.88 356.967C1520.12 362.007 1507.94 364.527 1495.34 364.527C1483.3 364.527 1471.26 362.147 1459.22 357.387C1447.18 352.627 1436.4 345.487 1426.88 335.967C1417.64 326.447 1410.08 314.547 1404.2 300.267C1398.32 285.707 1395.38 268.767 1395.38 249.447C1395.38 230.127 1398.32 213.327 1404.2 199.047C1410.08 184.487 1417.64 172.447 1426.88 162.927C1436.4 153.407 1447.18 146.267 1459.22 141.507C1471.26 136.747 1483.3 134.367 1495.34 134.367C1507.94 134.367 1520.12 136.887 1531.88 141.927C1543.64 146.967 1553.58 154.527 1561.7 164.607V139.407H1615.88ZM1450.4 249.447C1450.4 259.807 1451.94 269.047 1455.02 277.167C1458.38 285.007 1462.58 291.587 1467.62 296.907C1472.94 301.947 1478.96 305.867 1485.68 308.667C1492.4 311.187 1499.26 312.447 1506.26 312.447C1513.26 312.447 1519.98 311.187 1526.42 308.667C1533.14 305.867 1539.02 301.947 1544.06 296.907C1549.38 291.587 1553.58 285.007 1556.66 277.167C1560.02 269.047 1561.7 259.807 1561.7 249.447C1561.7 238.807 1560.02 229.567 1556.66 221.727C1553.58 213.887 1549.38 207.447 1544.06 202.407C1539.02 197.087 1533.14 193.167 1526.42 190.647C1519.98 187.847 1513.26 186.447 1506.26 186.447C1499.26 186.447 1492.4 187.847 1485.68 190.647C1478.96 193.167 1472.94 197.087 1467.62 202.407C1462.58 207.447 1458.38 213.887 1455.02 221.727C1451.94 229.567 1450.4 238.807 1450.4 249.447ZM1782.64 140.667V193.587H1756.18C1730.42 193.587 1717.54 206.607 1717.54 232.647V360.327H1663.36V228.447C1663.36 196.807 1670.5 174.267 1684.78 160.827C1699.06 147.387 1719.36 140.667 1745.68 140.667H1782.64ZM2027.27 47.8467V359.907H1973.09V334.287C1964.97 344.367 1955.03 351.927 1943.27 356.967C1931.51 362.007 1919.33 364.527 1906.73 364.527C1894.69 364.527 1882.65 362.147 1870.61 357.387C1858.57 352.627 1847.79 345.487 1838.27 335.967C1829.03 326.447 1821.47 314.547 1815.59 300.267C1809.71 285.707 1806.77 268.767 1806.77 249.447C1806.77 230.127 1809.71 213.327 1815.59 199.047C1821.47 184.487 1829.03 172.447 1838.27 162.927C1847.79 153.407 1858.57 146.267 1870.61 141.507C1882.65 136.747 1894.69 134.367 1906.73 134.367C1919.33 134.367 1931.51 136.887 1943.27 141.927C1955.03 146.967 1964.97 154.527 1973.09 164.607V47.8467H2027.27ZM1861.79 249.447C1861.79 259.807 1863.33 269.047 1866.41 277.167C1869.77 285.007 1873.97 291.587 1879.01 296.907C1884.33 301.947 1890.35 305.867 1897.07 308.667C1903.79 311.187 1910.65 312.447 1917.65 312.447C1924.65 312.447 1931.37 311.187 1937.81 308.667C1944.53 305.867 1950.41 301.947 1955.45 296.907C1960.77 291.587 1964.97 285.007 1968.05 277.167C1971.41 269.047 1973.09 259.807 1973.09 249.447C1973.09 238.807 1971.41 229.567 1968.05 221.727C1964.97 213.887 1960.77 207.447 1955.45 202.407C1950.41 197.087 1944.53 193.167 1937.81 190.647C1931.37 187.847 1924.65 186.447 1917.65 186.447C1910.65 186.447 1903.79 187.847 1897.07 190.647C1890.35 193.167 1884.33 197.087 1879.01 202.407C1873.97 207.447 1869.77 213.887 1866.41 221.727C1863.33 229.567 1861.79 238.807 1861.79 249.447Z"/>
</mask>
<path d="M571.04 140.667V193.587H544.58C518.82 193.587 505.94 206.607 505.94 232.647V360.327H451.76V228.447C451.76 196.807 458.9 174.267 473.18 160.827C487.46 147.387 507.76 140.667 534.08 140.667H571.04ZM650.607 262.467C652.287 270.867 655.087 278.287 659.007 284.727C663.207 290.887 668.107 296.207 673.707 300.687C679.587 304.887 686.027 308.107 693.027 310.347C700.027 312.307 707.167 313.287 714.447 313.287C725.647 313.287 736.427 310.767 746.787 305.727C757.147 300.687 765.687 293.127 772.407 283.047L815.247 314.127C810.767 322.527 805.027 329.947 798.027 336.387C791.027 342.547 783.187 347.727 774.507 351.927C765.827 356.127 756.587 359.347 746.787 361.587C736.987 363.827 726.907 364.947 716.547 364.947C701.427 364.947 686.587 362.567 672.027 357.807C657.467 353.047 644.447 345.907 632.967 336.387C621.487 326.587 612.107 314.407 604.827 299.847C597.827 285.007 594.327 267.647 594.327 247.767C594.327 228.727 597.547 212.207 603.987 198.207C610.707 183.927 619.387 172.027 630.027 162.507C640.947 152.987 653.127 145.847 666.567 141.087C680.287 136.327 694.147 133.947 708.147 133.947C721.587 133.947 734.747 136.187 747.627 140.667C760.507 144.867 771.987 151.447 782.067 160.407C792.147 169.087 800.127 180.007 806.007 193.167C812.167 206.327 815.247 221.727 815.247 239.367V262.467H650.607ZM758.127 226.767C758.127 220.047 756.727 214.167 753.927 209.127C751.127 203.807 747.347 199.467 742.587 196.107C738.107 192.467 732.787 189.667 726.627 187.707C720.467 185.747 714.167 184.767 707.727 184.767C701.847 184.767 695.967 185.607 690.087 187.287C684.487 188.967 679.167 191.487 674.127 194.847C669.087 198.207 664.607 202.547 660.687 207.867C656.767 213.187 653.827 219.487 651.867 226.767H758.127ZM1121.24 245.247V297.327C1118.16 307.687 1112.56 317.067 1104.44 325.467C1096.32 333.867 1086.66 341.147 1075.46 347.307C1064.26 353.187 1051.8 357.667 1038.08 360.747C1024.36 364.107 1010.36 365.787 996.083 365.787C978.163 365.787 960.243 362.987 942.323 357.387C924.683 351.787 908.723 342.827 894.443 330.507C880.443 318.187 868.963 302.367 860.003 283.047C851.323 263.727 846.983 240.207 846.983 212.487C846.983 185.887 851.183 163.067 859.583 144.027C868.263 124.707 879.463 108.887 893.183 96.5667C907.183 83.9667 922.863 74.7267 940.223 68.8467C957.863 62.9667 975.783 60.0267 993.983 60.0267C1007.14 60.0267 1020.02 61.5667 1032.62 64.6467C1045.5 67.4467 1057.4 71.6467 1068.32 77.2467C1079.52 82.8467 1089.6 89.8467 1098.56 98.2467C1107.8 106.367 1115.22 115.747 1120.82 126.387L1076.3 161.247C1067.9 145.287 1056.28 133.247 1041.44 125.127C1026.88 117.007 1011.48 112.947 995.243 112.947C984.043 112.947 972.983 115.047 962.063 119.247C951.143 123.167 941.483 129.327 933.083 137.727C924.683 145.847 917.823 156.207 912.503 168.807C907.463 181.127 904.943 195.687 904.943 212.487C904.943 229.847 907.743 244.827 913.343 257.427C919.223 269.747 926.643 279.827 935.603 287.667C944.843 295.507 955.063 301.247 966.263 304.887C977.743 308.527 989.083 310.347 1000.28 310.347C1015.4 310.347 1028.98 307.407 1041.02 301.527C1053.06 295.647 1061.04 287.387 1064.96 276.747V251.547H982.643V202.827H1120.82V245.247H1121.24ZM1366.26 140.247V270.027C1366.26 286.267 1363.32 300.407 1357.44 312.447C1351.56 324.487 1343.86 334.567 1334.34 342.687C1324.82 350.807 1313.9 356.827 1301.58 360.747C1289.26 364.947 1276.8 367.047 1264.2 367.047C1251.32 367.047 1238.72 364.947 1226.4 360.747C1214.36 356.827 1203.44 350.807 1193.64 342.687C1184.12 334.567 1176.42 324.487 1170.54 312.447C1164.66 300.407 1161.72 286.267 1161.72 270.027V140.247H1215.9V270.027C1215.9 277.587 1217.3 284.307 1220.1 290.187C1222.9 295.787 1226.54 300.547 1231.02 304.467C1235.5 308.107 1240.54 310.907 1246.14 312.867C1252.02 314.827 1258.04 315.807 1264.2 315.807C1270.08 315.807 1275.82 314.827 1281.42 312.867C1287.3 310.907 1292.48 308.107 1296.96 304.467C1301.44 300.547 1305.08 295.787 1307.88 290.187C1310.68 284.307 1312.08 277.587 1312.08 270.027V140.247H1366.26ZM1615.88 139.407V359.907H1561.7V334.287C1553.58 344.367 1543.64 351.927 1531.88 356.967C1520.12 362.007 1507.94 364.527 1495.34 364.527C1483.3 364.527 1471.26 362.147 1459.22 357.387C1447.18 352.627 1436.4 345.487 1426.88 335.967C1417.64 326.447 1410.08 314.547 1404.2 300.267C1398.32 285.707 1395.38 268.767 1395.38 249.447C1395.38 230.127 1398.32 213.327 1404.2 199.047C1410.08 184.487 1417.64 172.447 1426.88 162.927C1436.4 153.407 1447.18 146.267 1459.22 141.507C1471.26 136.747 1483.3 134.367 1495.34 134.367C1507.94 134.367 1520.12 136.887 1531.88 141.927C1543.64 146.967 1553.58 154.527 1561.7 164.607V139.407H1615.88ZM1450.4 249.447C1450.4 259.807 1451.94 269.047 1455.02 277.167C1458.38 285.007 1462.58 291.587 1467.62 296.907C1472.94 301.947 1478.96 305.867 1485.68 308.667C1492.4 311.187 1499.26 312.447 1506.26 312.447C1513.26 312.447 1519.98 311.187 1526.42 308.667C1533.14 305.867 1539.02 301.947 1544.06 296.907C1549.38 291.587 1553.58 285.007 1556.66 277.167C1560.02 269.047 1561.7 259.807 1561.7 249.447C1561.7 238.807 1560.02 229.567 1556.66 221.727C1553.58 213.887 1549.38 207.447 1544.06 202.407C1539.02 197.087 1533.14 193.167 1526.42 190.647C1519.98 187.847 1513.26 186.447 1506.26 186.447C1499.26 186.447 1492.4 187.847 1485.68 190.647C1478.96 193.167 1472.94 197.087 1467.62 202.407C1462.58 207.447 1458.38 213.887 1455.02 221.727C1451.94 229.567 1450.4 238.807 1450.4 249.447ZM1782.64 140.667V193.587H1756.18C1730.42 193.587 1717.54 206.607 1717.54 232.647V360.327H1663.36V228.447C1663.36 196.807 1670.5 174.267 1684.78 160.827C1699.06 147.387 1719.36 140.667 1745.68 140.667H1782.64ZM2027.27 47.8467V359.907H1973.09V334.287C1964.97 344.367 1955.03 351.927 1943.27 356.967C1931.51 362.007 1919.33 364.527 1906.73 364.527C1894.69 364.527 1882.65 362.147 1870.61 357.387C1858.57 352.627 1847.79 345.487 1838.27 335.967C1829.03 326.447 1821.47 314.547 1815.59 300.267C1809.71 285.707 1806.77 268.767 1806.77 249.447C1806.77 230.127 1809.71 213.327 1815.59 199.047C1821.47 184.487 1829.03 172.447 1838.27 162.927C1847.79 153.407 1858.57 146.267 1870.61 141.507C1882.65 136.747 1894.69 134.367 1906.73 134.367C1919.33 134.367 1931.51 136.887 1943.27 141.927C1955.03 146.967 1964.97 154.527 1973.09 164.607V47.8467H2027.27ZM1861.79 249.447C1861.79 259.807 1863.33 269.047 1866.41 277.167C1869.77 285.007 1873.97 291.587 1879.01 296.907C1884.33 301.947 1890.35 305.867 1897.07 308.667C1903.79 311.187 1910.65 312.447 1917.65 312.447C1924.65 312.447 1931.37 311.187 1937.81 308.667C1944.53 305.867 1950.41 301.947 1955.45 296.907C1960.77 291.587 1964.97 285.007 1968.05 277.167C1971.41 269.047 1973.09 259.807 1973.09 249.447C1973.09 238.807 1971.41 229.567 1968.05 221.727C1964.97 213.887 1960.77 207.447 1955.45 202.407C1950.41 197.087 1944.53 193.167 1937.81 190.647C1931.37 187.847 1924.65 186.447 1917.65 186.447C1910.65 186.447 1903.79 187.847 1897.07 190.647C1890.35 193.167 1884.33 197.087 1879.01 202.407C1873.97 207.447 1869.77 213.887 1866.41 221.727C1863.33 229.567 1861.79 238.807 1861.79 249.447Z" fill="black"/>
<path d="M571.04 140.667H572.04V139.667H571.04V140.667ZM571.04 193.587V194.587H572.04V193.587H571.04ZM505.94 360.327V361.327H506.94V360.327H505.94ZM451.76 360.327H450.76V361.327H451.76V360.327ZM473.18 160.827L472.495 160.099L472.495 160.099L473.18 160.827ZM571.04 140.667H570.04V193.587H571.04H572.04V140.667H571.04ZM571.04 193.587V192.587H544.58V193.587V194.587H571.04V193.587ZM544.58 193.587V192.587C531.543 192.587 521.582 195.882 514.889 202.648C508.198 209.412 504.94 219.475 504.94 232.647H505.94H506.94C506.94 219.778 510.122 210.311 516.311 204.055C522.498 197.801 531.857 194.587 544.58 194.587V193.587ZM505.94 232.647H504.94V360.327H505.94H506.94V232.647H505.94ZM505.94 360.327V359.327H451.76V360.327V361.327H505.94V360.327ZM451.76 360.327H452.76V228.447H451.76H450.76V360.327H451.76ZM451.76 228.447H452.76C452.76 196.919 459.88 174.717 473.865 161.555L473.18 160.827L472.495 160.099C457.92 173.816 450.76 196.695 450.76 228.447H451.76ZM473.18 160.827L473.865 161.555C487.904 148.342 507.926 141.667 534.08 141.667V140.667V139.667C507.594 139.667 487.016 146.431 472.495 160.099L473.18 160.827ZM534.08 140.667V141.667H571.04V140.667V139.667H534.08V140.667ZM650.607 262.467V261.467H649.387L649.626 262.663L650.607 262.467ZM659.007 284.727L658.153 285.247L658.166 285.269L658.181 285.29L659.007 284.727ZM673.707 300.687L673.082 301.468L673.104 301.485L673.126 301.5L673.707 300.687ZM693.027 310.347L692.722 311.299L692.74 311.305L692.757 311.31L693.027 310.347ZM746.787 305.727L746.35 304.827L746.35 304.827L746.787 305.727ZM772.407 283.047L772.994 282.237L772.152 281.626L771.575 282.492L772.407 283.047ZM815.247 314.127L816.129 314.597L816.539 313.829L815.834 313.317L815.247 314.127ZM798.027 336.387L798.688 337.137L798.696 337.13L798.704 337.123L798.027 336.387ZM774.507 351.927L774.943 352.827L774.943 352.827L774.507 351.927ZM746.787 361.587L747.01 362.562L746.787 361.587ZM672.027 357.807L672.338 356.856L672.338 356.856L672.027 357.807ZM632.967 336.387L632.318 337.147L632.323 337.152L632.329 337.156L632.967 336.387ZM604.827 299.847L603.923 300.273L603.927 300.284L603.933 300.294L604.827 299.847ZM603.987 198.207L603.082 197.781L603.079 197.789L603.987 198.207ZM630.027 162.507L629.37 161.753L629.36 161.761L630.027 162.507ZM666.567 141.087L666.239 140.142L666.233 140.144L666.567 141.087ZM747.627 140.667L747.299 141.611L747.308 141.614L747.317 141.617L747.627 140.667ZM782.067 160.407L781.403 161.154L781.409 161.159L781.415 161.164L782.067 160.407ZM806.007 193.167L805.094 193.575L805.098 193.583L805.101 193.591L806.007 193.167ZM815.247 262.467V263.467H816.247V262.467H815.247ZM758.127 226.767V227.767H759.127V226.767H758.127ZM753.927 209.127L753.042 209.592L753.047 209.602L753.053 209.612L753.927 209.127ZM742.587 196.107L741.956 196.883L741.983 196.904L742.01 196.924L742.587 196.107ZM726.627 187.707L726.324 188.66L726.324 188.66L726.627 187.707ZM690.087 187.287L689.812 186.325L689.8 186.329L690.087 187.287ZM674.127 194.847L674.682 195.679L674.682 195.679L674.127 194.847ZM651.867 226.767L650.901 226.507L650.562 227.767H651.867V226.767ZM650.607 262.467L649.626 262.663C651.326 271.162 654.164 278.694 658.153 285.247L659.007 284.727L659.861 284.207C656.01 277.879 653.248 270.572 651.588 262.271L650.607 262.467ZM659.007 284.727L658.181 285.29C662.435 291.529 667.402 296.923 673.082 301.468L673.707 300.687L674.332 299.906C668.812 295.49 663.98 290.245 659.833 284.163L659.007 284.727ZM673.707 300.687L673.126 301.5C679.092 305.762 685.625 309.028 692.722 311.299L693.027 310.347L693.332 309.394C686.429 307.185 680.082 304.012 674.288 299.873L673.707 300.687ZM693.027 310.347L692.757 311.31C699.845 313.294 707.076 314.287 714.447 314.287V313.287V312.287C707.258 312.287 700.209 311.319 693.297 309.384L693.027 310.347ZM714.447 313.287V314.287C725.803 314.287 736.732 311.73 747.225 306.626L746.787 305.727L746.35 304.827C736.122 309.803 725.491 312.287 714.447 312.287V313.287ZM746.787 305.727L747.225 306.626C757.753 301.504 766.426 293.821 773.239 283.601L772.407 283.047L771.575 282.492C764.948 292.432 756.541 299.869 746.35 304.827L746.787 305.727ZM772.407 283.047L771.82 283.856L814.66 314.936L815.247 314.127L815.834 313.317L772.994 282.237L772.407 283.047ZM815.247 314.127L814.365 313.656C809.938 321.957 804.267 329.287 797.35 335.651L798.027 336.387L798.704 337.123C805.787 330.606 811.596 323.097 816.129 314.597L815.247 314.127ZM798.027 336.387L797.366 335.636C790.437 341.734 782.673 346.865 774.071 351.027L774.507 351.927L774.943 352.827C783.701 348.589 791.617 343.359 798.688 337.137L798.027 336.387ZM774.507 351.927L774.071 351.027C765.462 355.192 756.294 358.388 746.564 360.612L746.787 361.587L747.01 362.562C756.88 360.306 766.192 357.061 774.943 352.827L774.507 351.927ZM746.787 361.587L746.564 360.612C736.84 362.835 726.834 363.947 716.547 363.947V364.947V365.947C726.98 365.947 737.135 364.819 747.01 362.562L746.787 361.587ZM716.547 364.947V363.947C701.534 363.947 686.799 361.584 672.338 356.856L672.027 357.807L671.716 358.757C686.375 363.55 701.32 365.947 716.547 365.947V364.947ZM672.027 357.807L672.338 356.856C657.894 352.134 644.986 345.054 633.605 335.617L632.967 336.387L632.329 337.156C643.908 346.759 657.04 353.959 671.716 358.757L672.027 357.807ZM632.967 336.387L633.616 335.626C622.246 325.92 612.946 313.849 605.721 299.4L604.827 299.847L603.933 300.294C611.268 314.964 620.728 327.254 632.318 337.147L632.967 336.387ZM604.827 299.847L605.731 299.42C598.806 284.739 595.327 267.53 595.327 247.767H594.327H593.327C593.327 267.764 596.848 285.275 603.923 300.273L604.827 299.847ZM594.327 247.767H595.327C595.327 228.838 598.528 212.466 604.896 198.625L603.987 198.207L603.079 197.789C596.566 211.947 593.327 228.616 593.327 247.767H594.327ZM603.987 198.207L604.892 198.633C611.561 184.461 620.164 172.674 630.694 163.252L630.027 162.507L629.36 161.761C618.61 171.38 609.853 183.392 603.082 197.781L603.987 198.207ZM630.027 162.507L630.684 163.26C641.511 153.822 653.582 146.747 666.901 142.029L666.567 141.087L666.233 140.144C652.673 144.947 640.383 152.152 629.37 161.753L630.027 162.507ZM666.567 141.087L666.895 142.031C680.513 137.307 694.263 134.947 708.147 134.947V133.947V132.947C694.031 132.947 680.061 135.347 666.239 140.142L666.567 141.087ZM708.147 133.947V134.947C721.474 134.947 734.523 137.167 747.299 141.611L747.627 140.667L747.956 139.722C734.972 135.206 721.701 132.947 708.147 132.947V133.947ZM747.627 140.667L747.317 141.617C760.067 145.775 771.426 152.286 781.403 161.154L782.067 160.407L782.731 159.659C772.548 150.607 760.947 143.958 747.937 139.716L747.627 140.667ZM782.067 160.407L781.415 161.164C791.374 169.741 799.269 180.538 805.094 193.575L806.007 193.167L806.92 192.759C800.985 179.476 792.92 168.433 782.72 159.649L782.067 160.407ZM806.007 193.167L805.101 193.591C811.187 206.593 814.247 221.842 814.247 239.367H815.247H816.247C816.247 221.611 813.147 206.061 806.913 192.743L806.007 193.167ZM815.247 239.367H814.247V262.467H815.247H816.247V239.367H815.247ZM815.247 262.467V261.467H650.607V262.467V263.467H815.247V262.467ZM758.127 226.767H759.127C759.127 219.905 757.696 213.853 754.801 208.641L753.927 209.127L753.053 209.612C755.758 214.481 757.127 220.188 757.127 226.767H758.127ZM753.927 209.127L754.812 208.661C751.941 203.206 748.057 198.744 743.164 195.29L742.587 196.107L742.01 196.924C746.637 200.19 750.313 204.408 753.042 209.592L753.927 209.127ZM742.587 196.107L743.218 195.331C738.63 191.603 733.195 188.747 726.93 186.754L726.627 187.707L726.324 188.66C732.379 190.586 737.585 193.331 741.956 196.883L742.587 196.107ZM726.627 187.707L726.93 186.754C720.673 184.763 714.27 183.767 707.727 183.767V184.767V185.767C714.064 185.767 720.262 186.731 726.324 188.66L726.627 187.707ZM707.727 184.767V183.767C701.75 183.767 695.778 184.621 689.812 186.325L690.087 187.287L690.362 188.248C696.156 186.593 701.944 185.767 707.727 185.767V184.767ZM690.087 187.287L689.8 186.329C684.101 188.038 678.692 190.602 673.572 194.015L674.127 194.847L674.682 195.679C679.642 192.372 684.873 189.895 690.374 188.245L690.087 187.287ZM674.127 194.847L673.572 194.015C668.427 197.445 663.865 201.868 659.882 207.274L660.687 207.867L661.492 208.46C665.349 203.225 669.747 198.969 674.682 195.679L674.127 194.847ZM660.687 207.867L659.882 207.274C655.879 212.707 652.889 219.123 650.901 226.507L651.867 226.767L652.833 227.027C654.765 219.85 657.656 213.667 661.492 208.46L660.687 207.867ZM651.867 226.767V227.767H758.127V226.767V225.767H651.867V226.767ZM1121.24 245.247H1122.24V244.247H1121.24V245.247ZM1121.24 297.327L1122.2 297.612L1122.24 297.472V297.327H1121.24ZM1104.44 325.467L1105.16 326.162L1105.16 326.162L1104.44 325.467ZM1075.46 347.307L1075.93 348.192L1075.94 348.188L1075.95 348.183L1075.46 347.307ZM1038.08 360.747L1037.86 359.771L1037.85 359.773L1037.85 359.775L1038.08 360.747ZM942.323 357.387L942.021 358.34L942.025 358.341L942.323 357.387ZM894.443 330.507L893.783 331.257L893.79 331.264L894.443 330.507ZM860.003 283.047L859.091 283.457L859.096 283.467L860.003 283.047ZM859.583 144.027L858.671 143.617L858.668 143.623L859.583 144.027ZM893.183 96.5667L893.851 97.3108L893.852 97.31L893.183 96.5667ZM940.223 68.8467L939.907 67.898L939.902 67.8996L940.223 68.8467ZM1032.62 64.6467L1032.39 65.6181L1032.4 65.6212L1032.41 65.6239L1032.62 64.6467ZM1068.32 77.2467L1067.87 78.1366L1067.88 78.1411L1068.32 77.2467ZM1098.56 98.2467L1097.88 98.9763L1097.89 98.9873L1097.9 98.9979L1098.56 98.2467ZM1120.82 126.387L1121.44 127.174L1122.1 126.66L1121.71 125.921L1120.82 126.387ZM1076.3 161.247L1075.42 161.712L1075.98 162.773L1076.92 162.034L1076.3 161.247ZM1041.44 125.127L1040.96 126L1040.96 126.004L1041.44 125.127ZM962.063 119.247L962.401 120.188L962.412 120.184L962.422 120.18L962.063 119.247ZM933.083 137.727L933.778 138.446L933.784 138.44L933.79 138.434L933.083 137.727ZM912.503 168.807L911.582 168.418L911.578 168.428L912.503 168.807ZM913.343 257.427L912.429 257.833L912.435 257.845L912.441 257.857L913.343 257.427ZM935.603 287.667L934.945 288.419L934.951 288.424L934.956 288.429L935.603 287.667ZM966.263 304.887L965.954 305.838L965.961 305.84L966.263 304.887ZM1041.02 301.527L1041.46 302.425L1041.46 302.425L1041.02 301.527ZM1064.96 276.747L1065.9 277.092L1065.96 276.925V276.747H1064.96ZM1064.96 251.547H1065.96V250.547H1064.96V251.547ZM982.643 251.547H981.643V252.547H982.643V251.547ZM982.643 202.827V201.827H981.643V202.827H982.643ZM1120.82 202.827H1121.82V201.827H1120.82V202.827ZM1120.82 245.247H1119.82V246.247H1120.82V245.247ZM1121.24 245.247H1120.24V297.327H1121.24H1122.24V245.247H1121.24ZM1121.24 297.327L1120.28 297.042C1117.25 307.236 1111.74 316.478 1103.72 324.772L1104.44 325.467L1105.16 326.162C1113.38 317.656 1119.07 308.138 1122.2 297.612L1121.24 297.327ZM1104.44 325.467L1103.72 324.772C1095.68 333.093 1086.1 340.314 1074.98 346.431L1075.46 347.307L1075.95 348.183C1087.22 341.979 1096.97 334.64 1105.16 326.162L1104.44 325.467ZM1075.46 347.307L1075 346.421C1063.88 352.256 1051.51 356.708 1037.86 359.771L1038.08 360.747L1038.3 361.722C1052.1 358.625 1064.64 354.117 1075.93 348.192L1075.46 347.307ZM1038.08 360.747L1037.85 359.775C1024.2 363.116 1010.28 364.787 996.083 364.787V365.787V366.787C1010.44 366.787 1024.52 365.097 1038.32 361.718L1038.08 360.747ZM996.083 365.787V364.787C978.269 364.787 960.45 362.004 942.622 356.432L942.323 357.387L942.025 358.341C960.037 363.97 978.057 366.787 996.083 366.787V365.787ZM942.323 357.387L942.626 356.434C925.117 350.875 909.276 341.983 895.097 329.75L894.443 330.507L893.79 331.264C908.17 343.671 924.249 352.698 942.021 358.34L942.323 357.387ZM894.443 330.507L895.104 329.756C881.222 317.54 869.82 301.838 860.91 282.626L860.003 283.047L859.096 283.467C868.106 302.896 879.665 318.834 893.783 331.257L894.443 330.507ZM860.003 283.047L860.915 282.637C852.308 263.479 847.983 240.107 847.983 212.487H846.983H845.983C845.983 240.306 850.338 263.974 859.091 283.457L860.003 283.047ZM846.983 212.487H847.983C847.983 185.989 852.168 163.313 860.498 144.43L859.583 144.027L858.668 143.623C850.199 162.82 845.983 185.785 845.983 212.487H846.983ZM859.583 144.027L860.495 144.437C869.127 125.225 880.249 109.525 893.851 97.3108L893.183 96.5667L892.515 95.8227C878.677 108.249 867.4 124.189 858.671 143.617L859.583 144.027ZM893.183 96.5667L893.852 97.31C907.754 84.7983 923.316 75.6291 940.544 69.7939L940.223 68.8467L939.902 67.8996C922.41 73.8244 906.612 83.1351 892.514 95.8234L893.183 96.5667ZM940.223 68.8467L940.54 69.7954C958.08 63.9486 975.893 61.0267 993.983 61.0267V60.0267V59.0267C975.673 59.0267 957.647 61.9848 939.907 67.898L940.223 68.8467ZM993.983 60.0267V61.0267C1007.06 61.0267 1019.86 62.5574 1032.39 65.6181L1032.62 64.6467L1032.86 63.6753C1020.18 60.576 1007.22 59.0267 993.983 59.0267V60.0267ZM1032.62 64.6467L1032.41 65.6239C1045.21 68.4068 1057.03 72.5789 1067.87 78.1365L1068.32 77.2467L1068.78 76.3569C1057.78 70.7145 1045.79 66.4866 1032.84 63.6696L1032.62 64.6467ZM1068.32 77.2467L1067.88 78.1411C1078.99 83.6988 1088.99 90.6437 1097.88 98.9763L1098.56 98.2467L1099.25 97.5172C1090.22 89.0498 1080.06 81.9947 1068.77 76.3523L1068.32 77.2467ZM1098.56 98.2467L1097.9 98.9979C1107.05 107.039 1114.4 116.323 1119.94 126.852L1120.82 126.387L1121.71 125.921C1116.05 115.17 1108.55 105.694 1099.22 97.4956L1098.56 98.2467ZM1120.82 126.387L1120.21 125.599L1075.69 160.459L1076.3 161.247L1076.92 162.034L1121.44 127.174L1120.82 126.387ZM1076.3 161.247L1077.19 160.781C1068.7 144.659 1056.95 132.47 1041.92 124.249L1041.44 125.127L1040.96 126.004C1055.62 134.023 1067.1 145.914 1075.42 161.712L1076.3 161.247ZM1041.44 125.127L1041.93 124.253C1027.23 116.053 1011.66 111.947 995.243 111.947V112.947V113.947C1011.31 113.947 1026.54 117.961 1040.96 126L1041.44 125.127ZM995.243 112.947V111.947C983.915 111.947 972.734 114.071 961.704 118.313L962.063 119.247L962.422 120.18C973.233 116.022 984.171 113.947 995.243 113.947V112.947ZM962.063 119.247L961.725 118.306C950.663 122.277 940.878 128.518 932.376 137.02L933.083 137.727L933.79 138.434C942.089 130.136 951.623 124.057 962.401 120.188L962.063 119.247ZM933.083 137.727L932.388 137.008C923.876 145.236 916.946 155.715 911.582 168.418L912.503 168.807L913.425 169.196C918.701 156.699 925.49 146.457 933.778 138.446L933.083 137.727ZM912.503 168.807L911.578 168.428C906.478 180.895 903.943 195.59 903.943 212.487H904.943H905.943C905.943 195.784 908.449 181.358 913.429 169.185L912.503 168.807ZM904.943 212.487H903.943C903.943 229.952 906.76 245.076 912.429 257.833L913.343 257.427L914.257 257.021C908.727 244.577 905.943 229.742 905.943 212.487H904.943ZM913.343 257.427L912.441 257.857C918.371 270.282 925.868 280.478 934.945 288.419L935.603 287.667L936.262 286.914C927.418 279.176 920.076 269.211 914.246 256.996L913.343 257.427ZM935.603 287.667L934.956 288.429C944.293 296.351 954.627 302.156 965.954 305.838L966.263 304.887L966.572 303.936C955.5 300.337 945.394 294.662 936.25 286.904L935.603 287.667ZM966.263 304.887L965.961 305.84C977.531 309.509 988.973 311.347 1000.28 311.347V310.347V309.347C989.193 309.347 977.955 307.545 966.566 303.934L966.263 304.887ZM1000.28 310.347V311.347C1015.54 311.347 1029.27 308.38 1041.46 302.425L1041.02 301.527L1040.58 300.628C1028.7 306.433 1015.27 309.347 1000.28 309.347V310.347ZM1041.02 301.527L1041.46 302.425C1053.69 296.454 1061.88 288.017 1065.9 277.092L1064.96 276.747L1064.02 276.401C1060.21 286.756 1052.44 294.839 1040.58 300.628L1041.02 301.527ZM1064.96 276.747H1065.96V251.547H1064.96H1063.96V276.747H1064.96ZM1064.96 251.547V250.547H982.643V251.547V252.547H1064.96V251.547ZM982.643 251.547H983.643V202.827H982.643H981.643V251.547H982.643ZM982.643 202.827V203.827H1120.82V202.827V201.827H982.643V202.827ZM1120.82 202.827H1119.82V245.247H1120.82H1121.82V202.827H1120.82ZM1120.82 245.247V246.247H1121.24V245.247V244.247H1120.82V245.247ZM1366.26 140.247H1367.26V139.247H1366.26V140.247ZM1357.44 312.447L1356.54 312.008L1356.54 312.008L1357.44 312.447ZM1334.34 342.687L1333.69 341.926L1333.69 341.926L1334.34 342.687ZM1301.58 360.747L1301.28 359.794L1301.27 359.797L1301.26 359.8L1301.58 360.747ZM1226.4 360.747L1226.72 359.8L1226.71 359.796L1226.4 360.747ZM1193.64 342.687L1192.99 343.448L1193 343.452L1193 343.457L1193.64 342.687ZM1170.54 312.447L1171.44 312.008L1171.44 312.008L1170.54 312.447ZM1161.72 140.247V139.247H1160.72V140.247H1161.72ZM1215.9 140.247H1216.9V139.247H1215.9V140.247ZM1220.1 290.187L1219.2 290.617L1219.2 290.625L1219.21 290.634L1220.1 290.187ZM1231.02 304.467L1230.36 305.219L1230.38 305.231L1230.39 305.243L1231.02 304.467ZM1246.14 312.867L1245.81 313.811L1245.82 313.813L1245.82 313.815L1246.14 312.867ZM1281.42 312.867L1281.1 311.918L1281.1 311.92L1281.09 311.923L1281.42 312.867ZM1296.96 304.467L1297.59 305.243L1297.61 305.231L1297.62 305.219L1296.96 304.467ZM1307.88 290.187L1308.78 290.634L1308.78 290.625L1308.78 290.617L1307.88 290.187ZM1312.08 140.247V139.247H1311.08V140.247H1312.08ZM1366.26 140.247H1365.26V270.027H1366.26H1367.26V140.247H1366.26ZM1366.26 270.027H1365.26C1365.26 286.146 1362.34 300.13 1356.54 312.008L1357.44 312.447L1358.34 312.886C1364.3 300.683 1367.26 286.387 1367.26 270.027H1366.26ZM1357.44 312.447L1356.54 312.008C1350.72 323.933 1343.1 333.901 1333.69 341.926L1334.34 342.687L1334.99 343.448C1344.62 335.232 1352.4 325.04 1358.34 312.886L1357.44 312.447ZM1334.34 342.687L1333.69 341.926C1324.28 349.957 1313.48 355.913 1301.28 359.794L1301.58 360.747L1301.88 361.7C1314.33 357.741 1325.37 351.657 1334.99 343.448L1334.34 342.687ZM1301.58 360.747L1301.26 359.8C1289.04 363.966 1276.69 366.047 1264.2 366.047V367.047V368.047C1276.91 368.047 1289.48 365.927 1301.9 361.693L1301.58 360.747ZM1264.2 367.047V366.047C1251.43 366.047 1238.94 363.965 1226.72 359.8L1226.4 360.747L1226.08 361.693C1238.5 365.928 1251.21 368.047 1264.2 368.047V367.047ZM1226.4 360.747L1226.71 359.796C1214.79 355.915 1203.98 349.957 1194.28 341.917L1193.64 342.687L1193 343.457C1202.9 351.657 1213.93 357.738 1226.09 361.698L1226.4 360.747ZM1193.64 342.687L1194.29 341.926C1184.88 333.901 1177.26 323.933 1171.44 312.008L1170.54 312.447L1169.64 312.886C1175.58 325.04 1183.36 335.232 1192.99 343.448L1193.64 342.687ZM1170.54 312.447L1171.44 312.008C1165.64 300.13 1162.72 286.146 1162.72 270.027H1161.72H1160.72C1160.72 286.387 1163.68 300.683 1169.64 312.886L1170.54 312.447ZM1161.72 270.027H1162.72V140.247H1161.72H1160.72V270.027H1161.72ZM1161.72 140.247V141.247H1215.9V140.247V139.247H1161.72V140.247ZM1215.9 140.247H1214.9V270.027H1215.9H1216.9V140.247H1215.9ZM1215.9 270.027H1214.9C1214.9 277.712 1216.32 284.582 1219.2 290.617L1220.1 290.187L1221 289.757C1218.28 284.031 1216.9 277.462 1216.9 270.027H1215.9ZM1220.1 290.187L1219.21 290.634C1222.06 296.344 1225.78 301.209 1230.36 305.219L1231.02 304.467L1231.68 303.714C1227.3 299.884 1223.74 295.229 1221 289.74L1220.1 290.187ZM1231.02 304.467L1230.39 305.243C1234.96 308.958 1240.1 311.814 1245.81 313.811L1246.14 312.867L1246.47 311.923C1240.98 310 1236.04 307.256 1231.65 303.691L1231.02 304.467ZM1246.14 312.867L1245.82 313.815C1251.81 315.809 1257.93 316.807 1264.2 316.807V315.807V314.807C1258.15 314.807 1252.24 313.844 1246.46 311.918L1246.14 312.867ZM1264.2 315.807V316.807C1270.19 316.807 1276.05 315.807 1281.75 313.811L1281.42 312.867L1281.09 311.923C1275.6 313.846 1269.97 314.807 1264.2 314.807V315.807ZM1281.42 312.867L1281.74 313.815C1287.72 311.82 1293.01 308.964 1297.59 305.243L1296.96 304.467L1296.33 303.691C1291.95 307.249 1286.88 309.993 1281.1 311.918L1281.42 312.867ZM1296.96 304.467L1297.62 305.219C1302.2 301.209 1305.92 296.344 1308.78 290.634L1307.88 290.187L1306.99 289.74C1304.24 295.229 1300.68 299.884 1296.3 303.714L1296.96 304.467ZM1307.88 290.187L1308.78 290.617C1311.66 284.582 1313.08 277.712 1313.08 270.027H1312.08H1311.08C1311.08 277.462 1309.7 284.031 1306.98 289.757L1307.88 290.187ZM1312.08 270.027H1313.08V140.247H1312.08H1311.08V270.027H1312.08ZM1312.08 140.247V141.247H1366.26V140.247V139.247H1312.08V140.247ZM1615.88 139.407H1616.88V138.407H1615.88V139.407ZM1615.88 359.907V360.907H1616.88V359.907H1615.88ZM1561.7 359.907H1560.7V360.907H1561.7V359.907ZM1561.7 334.287H1562.7V331.451L1560.92 333.659L1561.7 334.287ZM1531.88 356.967L1531.49 356.048L1531.49 356.048L1531.88 356.967ZM1459.22 357.387L1459.59 356.457L1459.59 356.457L1459.22 357.387ZM1426.88 335.967L1426.16 336.663L1426.17 336.669L1426.17 336.674L1426.88 335.967ZM1404.2 300.267L1403.27 300.641L1403.28 300.647L1404.2 300.267ZM1404.2 199.047L1405.13 199.427L1405.13 199.421L1404.2 199.047ZM1426.88 162.927L1426.17 162.22L1426.17 162.225L1426.16 162.23L1426.88 162.927ZM1459.22 141.507L1458.85 140.577L1458.85 140.577L1459.22 141.507ZM1531.88 141.927L1532.28 141.008L1532.28 141.008L1531.88 141.927ZM1561.7 164.607L1560.92 165.234L1562.7 167.442V164.607H1561.7ZM1561.7 139.407V138.407H1560.7V139.407H1561.7ZM1455.02 277.167L1454.09 277.521L1454.09 277.541L1454.1 277.561L1455.02 277.167ZM1467.62 296.907L1466.9 297.594L1466.91 297.614L1466.93 297.633L1467.62 296.907ZM1485.68 308.667L1485.3 309.59L1485.31 309.597L1485.33 309.603L1485.68 308.667ZM1526.42 308.667L1526.79 309.598L1526.8 309.594L1526.81 309.59L1526.42 308.667ZM1544.06 296.907L1544.77 297.614L1544.77 297.614L1544.06 296.907ZM1556.66 277.167L1555.74 276.784L1555.73 276.793L1555.73 276.801L1556.66 277.167ZM1556.66 221.727L1555.73 222.092L1555.74 222.107L1555.74 222.121L1556.66 221.727ZM1544.06 202.407L1543.34 203.094L1543.35 203.114L1543.37 203.133L1544.06 202.407ZM1526.42 190.647L1526.02 191.564L1526.05 191.574L1526.07 191.583L1526.42 190.647ZM1485.68 190.647L1486.03 191.583L1486.05 191.577L1486.07 191.57L1485.68 190.647ZM1467.62 202.407L1466.91 201.7L1466.91 201.7L1467.62 202.407ZM1455.02 221.727L1454.1 221.333L1454.1 221.347L1454.09 221.361L1455.02 221.727ZM1615.88 139.407H1614.88V359.907H1615.88H1616.88V139.407H1615.88ZM1615.88 359.907V358.907H1561.7V359.907V360.907H1615.88V359.907ZM1561.7 359.907H1562.7V334.287H1561.7H1560.7V359.907H1561.7ZM1561.7 334.287L1560.92 333.659C1552.9 343.614 1543.1 351.073 1531.49 356.048L1531.88 356.967L1532.28 357.886C1544.19 352.781 1554.26 345.12 1562.48 334.914L1561.7 334.287ZM1531.88 356.967L1531.49 356.048C1519.85 361.035 1507.8 363.527 1495.34 363.527V364.527V365.527C1508.08 365.527 1520.39 362.978 1532.28 357.886L1531.88 356.967ZM1495.34 364.527V363.527C1483.44 363.527 1471.52 361.174 1459.59 356.457L1459.22 357.387L1458.85 358.317C1471 363.119 1483.17 365.527 1495.34 365.527V364.527ZM1459.22 357.387L1459.59 356.457C1447.68 351.749 1437.02 344.687 1427.59 335.26L1426.88 335.967L1426.17 336.674C1435.79 346.287 1446.68 353.504 1458.85 358.317L1459.22 357.387ZM1426.88 335.967L1427.6 335.27C1418.46 325.855 1410.97 314.068 1405.13 299.886L1404.2 300.267L1403.28 300.647C1409.2 315.026 1416.82 327.038 1426.16 336.663L1426.88 335.967ZM1404.2 300.267L1405.13 299.892C1399.31 285.475 1396.38 268.667 1396.38 249.447H1395.38H1394.38C1394.38 268.866 1397.34 285.938 1403.27 300.641L1404.2 300.267ZM1395.38 249.447H1396.38C1396.38 230.226 1399.31 213.561 1405.13 199.427L1404.2 199.047L1403.28 198.666C1397.34 213.093 1394.38 230.028 1394.38 249.447H1395.38ZM1404.2 199.047L1405.13 199.421C1410.97 184.959 1418.46 173.035 1427.6 163.623L1426.88 162.927L1426.16 162.23C1416.82 171.858 1409.19 184.014 1403.27 198.672L1404.2 199.047ZM1426.88 162.927L1427.59 163.634C1437.02 154.207 1447.68 147.144 1459.59 142.437L1459.22 141.507L1458.85 140.577C1446.68 145.389 1435.79 152.607 1426.17 162.22L1426.88 162.927ZM1459.22 141.507L1459.59 142.437C1471.52 137.719 1483.44 135.367 1495.34 135.367V134.367V133.367C1483.17 133.367 1471 135.774 1458.85 140.577L1459.22 141.507ZM1495.34 134.367V135.367C1507.8 135.367 1519.85 137.858 1531.49 142.846L1531.88 141.927L1532.28 141.008C1520.39 135.915 1508.08 133.367 1495.34 133.367V134.367ZM1531.88 141.927L1531.49 142.846C1543.1 147.821 1552.9 155.28 1560.92 165.234L1561.7 164.607L1562.48 163.979C1554.26 153.774 1544.19 146.113 1532.28 141.008L1531.88 141.927ZM1561.7 164.607H1562.7V139.407H1561.7H1560.7V164.607H1561.7ZM1561.7 139.407V140.407H1615.88V139.407V138.407H1561.7V139.407ZM1450.4 249.447H1449.4C1449.4 259.905 1450.96 269.269 1454.09 277.521L1455.02 277.167L1455.96 276.812C1452.93 268.825 1451.4 259.708 1451.4 249.447H1450.4ZM1455.02 277.167L1454.1 277.561C1457.5 285.492 1461.76 292.176 1466.9 297.594L1467.62 296.907L1468.35 296.219C1463.4 290.998 1459.26 284.522 1455.94 276.773L1455.02 277.167ZM1467.62 296.907L1466.93 297.633C1472.34 302.756 1478.46 306.743 1485.3 309.59L1485.68 308.667L1486.07 307.744C1479.46 304.991 1473.54 301.138 1468.31 296.181L1467.62 296.907ZM1485.68 308.667L1485.33 309.603C1492.16 312.164 1499.14 313.447 1506.26 313.447V312.447V311.447C1499.38 311.447 1492.64 310.209 1486.03 307.73L1485.68 308.667ZM1506.26 312.447V313.447C1513.39 313.447 1520.23 312.164 1526.79 309.598L1526.42 308.667L1526.06 307.735C1519.74 310.209 1513.14 311.447 1506.26 311.447V312.447ZM1526.42 308.667L1526.81 309.59C1533.64 306.741 1539.63 302.748 1544.77 297.614L1544.06 296.907L1543.35 296.2C1538.41 301.145 1532.64 304.993 1526.04 307.744L1526.42 308.667ZM1544.06 296.907L1544.77 297.614C1550.2 292.186 1554.47 285.485 1557.59 277.532L1556.66 277.167L1555.73 276.801C1552.7 284.528 1548.57 290.988 1543.35 296.2L1544.06 296.907ZM1556.66 277.167L1557.59 277.549C1561 269.288 1562.7 259.915 1562.7 249.447H1561.7H1560.7C1560.7 259.699 1559.04 268.805 1555.74 276.784L1556.66 277.167ZM1561.7 249.447H1562.7C1562.7 238.704 1561.01 229.324 1557.58 221.333L1556.66 221.727L1555.74 222.121C1559.04 229.809 1560.7 238.91 1560.7 249.447H1561.7ZM1556.66 221.727L1557.59 221.361C1554.47 213.405 1550.19 206.836 1544.75 201.681L1544.06 202.407L1543.37 203.133C1548.57 208.058 1552.7 214.368 1555.73 222.092L1556.66 221.727ZM1544.06 202.407L1544.79 201.719C1539.65 196.291 1533.64 192.285 1526.77 189.71L1526.42 190.647L1526.07 191.583C1532.65 194.049 1538.4 197.882 1543.34 203.094L1544.06 202.407ZM1526.42 190.647L1526.82 189.73C1520.26 186.875 1513.4 185.447 1506.26 185.447V186.447V187.447C1513.12 187.447 1519.71 188.818 1526.02 191.564L1526.42 190.647ZM1506.26 186.447V185.447C1499.12 185.447 1492.13 186.875 1485.3 189.724L1485.68 190.647L1486.07 191.57C1492.67 188.819 1499.4 187.447 1506.26 187.447V186.447ZM1485.68 190.647L1485.33 189.71C1478.47 192.283 1472.33 196.284 1466.91 201.7L1467.62 202.407L1468.33 203.114C1473.55 197.89 1479.45 194.051 1486.03 191.583L1485.68 190.647ZM1467.62 202.407L1466.91 201.7C1461.77 206.845 1457.5 213.398 1454.1 221.333L1455.02 221.727L1455.94 222.121C1459.26 214.375 1463.39 208.048 1468.33 203.114L1467.62 202.407ZM1455.02 221.727L1454.09 221.361C1450.96 229.344 1449.4 238.713 1449.4 249.447H1450.4H1451.4C1451.4 238.9 1452.93 229.79 1455.95 222.092L1455.02 221.727ZM1782.64 140.667H1783.64V139.667H1782.64V140.667ZM1782.64 193.587V194.587H1783.64V193.587H1782.64ZM1717.54 360.327V361.327H1718.54V360.327H1717.54ZM1663.36 360.327H1662.36V361.327H1663.36V360.327ZM1684.78 160.827L1684.1 160.099L1684.1 160.099L1684.78 160.827ZM1782.64 140.667H1781.64V193.587H1782.64H1783.64V140.667H1782.64ZM1782.64 193.587V192.587H1756.18V193.587V194.587H1782.64V193.587ZM1756.18 193.587V192.587C1743.14 192.587 1733.18 195.882 1726.49 202.648C1719.8 209.412 1716.54 219.475 1716.54 232.647H1717.54H1718.54C1718.54 219.778 1721.72 210.311 1727.91 204.055C1734.1 197.801 1743.46 194.587 1756.18 194.587V193.587ZM1717.54 232.647H1716.54V360.327H1717.54H1718.54V232.647H1717.54ZM1717.54 360.327V359.327H1663.36V360.327V361.327H1717.54V360.327ZM1663.36 360.327H1664.36V228.447H1663.36H1662.36V360.327H1663.36ZM1663.36 228.447H1664.36C1664.36 196.919 1671.48 174.717 1685.47 161.555L1684.78 160.827L1684.1 160.099C1669.52 173.816 1662.36 196.695 1662.36 228.447H1663.36ZM1684.78 160.827L1685.47 161.555C1699.51 148.342 1719.53 141.667 1745.68 141.667V140.667V139.667C1719.2 139.667 1698.62 146.431 1684.1 160.099L1684.78 160.827ZM1745.68 140.667V141.667H1782.64V140.667V139.667H1745.68V140.667ZM2027.27 47.8467H2028.27V46.8467H2027.27V47.8467ZM2027.27 359.907V360.907H2028.27V359.907H2027.27ZM1973.09 359.907H1972.09V360.907H1973.09V359.907ZM1973.09 334.287H1974.09V331.451L1972.31 333.659L1973.09 334.287ZM1943.27 356.967L1942.87 356.048L1942.87 356.048L1943.27 356.967ZM1870.61 357.387L1870.98 356.457L1870.98 356.457L1870.61 357.387ZM1838.27 335.967L1837.55 336.663L1837.56 336.669L1837.56 336.674L1838.27 335.967ZM1815.59 300.267L1814.66 300.641L1814.66 300.647L1815.59 300.267ZM1815.59 199.047L1816.51 199.427L1816.52 199.421L1815.59 199.047ZM1838.27 162.927L1837.56 162.22L1837.56 162.225L1837.55 162.23L1838.27 162.927ZM1870.61 141.507L1870.24 140.577L1870.24 140.577L1870.61 141.507ZM1943.27 141.927L1943.66 141.008L1943.66 141.008L1943.27 141.927ZM1973.09 164.607L1972.31 165.234L1974.09 167.442V164.607H1973.09ZM1973.09 47.8467V46.8467H1972.09V47.8467H1973.09ZM1866.41 277.167L1865.47 277.521L1865.48 277.541L1865.49 277.561L1866.41 277.167ZM1879.01 296.907L1878.28 297.594L1878.3 297.614L1878.32 297.633L1879.01 296.907ZM1897.07 308.667L1896.68 309.59L1896.7 309.597L1896.72 309.603L1897.07 308.667ZM1937.81 308.667L1938.17 309.598L1938.18 309.594L1938.19 309.59L1937.81 308.667ZM1955.45 296.907L1956.16 297.614L1956.16 297.614L1955.45 296.907ZM1968.05 277.167L1967.12 276.784L1967.12 276.793L1967.12 276.801L1968.05 277.167ZM1968.05 221.727L1967.12 222.092L1967.12 222.107L1967.13 222.121L1968.05 221.727ZM1955.45 202.407L1954.72 203.094L1954.74 203.114L1954.76 203.133L1955.45 202.407ZM1937.81 190.647L1937.41 191.564L1937.43 191.574L1937.46 191.583L1937.81 190.647ZM1897.07 190.647L1897.42 191.583L1897.44 191.577L1897.45 191.57L1897.07 190.647ZM1879.01 202.407L1878.3 201.7L1878.3 201.7L1879.01 202.407ZM1866.41 221.727L1865.49 221.333L1865.48 221.347L1865.48 221.361L1866.41 221.727ZM2027.27 47.8467H2026.27V359.907H2027.27H2028.27V47.8467H2027.27ZM2027.27 359.907V358.907H1973.09V359.907V360.907H2027.27V359.907ZM1973.09 359.907H1974.09V334.287H1973.09H1972.09V359.907H1973.09ZM1973.09 334.287L1972.31 333.659C1964.29 343.614 1954.48 351.073 1942.87 356.048L1943.27 356.967L1943.66 357.886C1955.57 352.781 1965.65 345.12 1973.87 334.914L1973.09 334.287ZM1943.27 356.967L1942.87 356.048C1931.24 361.035 1919.19 363.527 1906.73 363.527V364.527V365.527C1919.47 365.527 1931.78 362.978 1943.66 357.886L1943.27 356.967ZM1906.73 364.527V363.527C1894.82 363.527 1882.91 361.174 1870.98 356.457L1870.61 357.387L1870.24 358.317C1882.39 363.119 1894.55 365.527 1906.73 365.527V364.527ZM1870.61 357.387L1870.98 356.457C1859.07 351.749 1848.4 344.687 1838.98 335.26L1838.27 335.967L1837.56 336.674C1847.17 346.287 1858.07 353.504 1870.24 358.317L1870.61 357.387ZM1838.27 335.967L1838.99 335.27C1829.85 325.855 1822.35 314.068 1816.51 299.886L1815.59 300.267L1814.66 300.647C1820.58 315.026 1828.21 327.038 1837.55 336.663L1838.27 335.967ZM1815.59 300.267L1816.52 299.892C1810.69 285.475 1807.77 268.667 1807.77 249.447H1806.77H1805.77C1805.77 268.866 1808.72 285.938 1814.66 300.641L1815.59 300.267ZM1806.77 249.447H1807.77C1807.77 230.226 1810.69 213.561 1816.51 199.427L1815.59 199.047L1814.66 198.666C1808.72 213.093 1805.77 230.028 1805.77 249.447H1806.77ZM1815.59 199.047L1816.52 199.421C1822.36 184.959 1829.85 173.035 1838.99 163.623L1838.27 162.927L1837.55 162.23C1828.21 171.858 1820.58 184.014 1814.66 198.672L1815.59 199.047ZM1838.27 162.927L1838.98 163.634C1848.4 154.207 1859.07 147.144 1870.98 142.437L1870.61 141.507L1870.24 140.577C1858.07 145.389 1847.17 152.607 1837.56 162.22L1838.27 162.927ZM1870.61 141.507L1870.98 142.437C1882.91 137.719 1894.82 135.367 1906.73 135.367V134.367V133.367C1894.55 133.367 1882.39 135.774 1870.24 140.577L1870.61 141.507ZM1906.73 134.367V135.367C1919.19 135.367 1931.24 137.858 1942.87 142.846L1943.27 141.927L1943.66 141.008C1931.78 135.915 1919.47 133.367 1906.73 133.367V134.367ZM1943.27 141.927L1942.87 142.846C1954.48 147.821 1964.29 155.28 1972.31 165.234L1973.09 164.607L1973.87 163.979C1965.65 153.774 1955.57 146.113 1943.66 141.008L1943.27 141.927ZM1973.09 164.607H1974.09V47.8467H1973.09H1972.09V164.607H1973.09ZM1973.09 47.8467V48.8467H2027.27V47.8467V46.8467H1973.09V47.8467ZM1861.79 249.447H1860.79C1860.79 259.905 1862.34 269.269 1865.47 277.521L1866.41 277.167L1867.34 276.812C1864.31 268.825 1862.79 259.708 1862.79 249.447H1861.79ZM1866.41 277.167L1865.49 277.561C1868.89 285.492 1873.15 292.176 1878.28 297.594L1879.01 296.907L1879.73 296.219C1874.79 290.998 1870.65 284.522 1867.33 276.773L1866.41 277.167ZM1879.01 296.907L1878.32 297.633C1883.73 302.756 1889.85 306.743 1896.68 309.59L1897.07 308.667L1897.45 307.744C1890.85 304.991 1884.93 301.138 1879.7 296.181L1879.01 296.907ZM1897.07 308.667L1896.72 309.603C1903.55 312.164 1910.53 313.447 1917.65 313.447V312.447V311.447C1910.77 311.447 1904.03 310.209 1897.42 307.73L1897.07 308.667ZM1917.65 312.447V313.447C1924.77 313.447 1931.62 312.164 1938.17 309.598L1937.81 308.667L1937.44 307.735C1931.12 310.209 1924.53 311.447 1917.65 311.447V312.447ZM1937.81 308.667L1938.19 309.59C1945.03 306.741 1951.02 302.748 1956.16 297.614L1955.45 296.907L1954.74 296.2C1949.8 301.145 1944.03 304.993 1937.42 307.744L1937.81 308.667ZM1955.45 296.907L1956.16 297.614C1961.58 292.186 1965.86 285.485 1968.98 277.532L1968.05 277.167L1967.12 276.801C1964.08 284.528 1959.95 290.988 1954.74 296.2L1955.45 296.907ZM1968.05 277.167L1968.97 277.549C1972.39 269.288 1974.09 259.915 1974.09 249.447H1973.09H1972.09C1972.09 259.699 1970.43 268.805 1967.12 276.784L1968.05 277.167ZM1973.09 249.447H1974.09C1974.09 238.704 1972.39 229.324 1968.97 221.333L1968.05 221.727L1967.13 222.121C1970.42 229.809 1972.09 238.91 1972.09 249.447H1973.09ZM1968.05 221.727L1968.98 221.361C1965.85 213.405 1961.58 206.836 1956.14 201.681L1955.45 202.407L1954.76 203.133C1959.96 208.058 1964.08 214.368 1967.12 222.092L1968.05 221.727ZM1955.45 202.407L1956.17 201.719C1951.03 196.291 1945.02 192.285 1938.16 189.71L1937.81 190.647L1937.46 191.583C1944.03 194.049 1949.78 197.882 1954.72 203.094L1955.45 202.407ZM1937.81 190.647L1938.21 189.73C1931.64 186.875 1924.79 185.447 1917.65 185.447V186.447V187.447C1924.51 187.447 1931.1 188.818 1937.41 191.564L1937.81 190.647ZM1917.65 186.447V185.447C1910.51 185.447 1903.52 186.875 1896.68 189.724L1897.07 190.647L1897.45 191.57C1904.06 188.819 1910.79 187.447 1917.65 187.447V186.447ZM1897.07 190.647L1896.72 189.71C1889.86 192.283 1883.72 196.284 1878.3 201.7L1879.01 202.407L1879.72 203.114C1884.94 197.89 1890.84 194.051 1897.42 191.583L1897.07 190.647ZM1879.01 202.407L1878.3 201.7C1873.16 206.845 1868.89 213.398 1865.49 221.333L1866.41 221.727L1867.33 222.121C1870.65 214.375 1874.78 208.048 1879.72 203.114L1879.01 202.407ZM1866.41 221.727L1865.48 221.361C1862.34 229.344 1860.79 238.713 1860.79 249.447H1861.79H1862.79C1862.79 238.9 1864.32 229.79 1867.34 222.092L1866.41 221.727Z" fill="black" mask="url(#path-1-outside-1_1_82)"/>
<path d="M184.421 414.161V390.981L196.796 384.096C224.457 368.704 245.026 355.334 259.421 343.387C265.979 337.944 275.955 328.126 280.723 322.42C290.639 310.554 299.267 294.607 300.581 285.717L300.858 283.842H268.639H236.421V263.217V242.592L292.592 242.411L348.762 242.23L348.58 246.411C347.602 268.809 346.219 278.839 341.906 294.842C337.049 312.857 327.397 331.631 314.915 347.342C309.689 353.919 291.892 371.77 284.921 377.426C262.343 395.746 237.858 411.054 204.235 427.871C193.821 433.08 185.103 437.342 184.86 437.342C184.614 437.342 184.421 427.159 184.421 414.161Z" fill="black" stroke="black"/>
<path d="M173.671 432.124C158.665 424.748 151.31 420.455 141.171 413.155C132.955 407.238 128.757 403.71 122.671 397.606C96.7332 371.592 83.2572 337.879 84.5902 302.343C85.2482 284.799 88.8932 270.238 96.7172 253.895C110.372 225.374 134.955 202.362 166.868 188.228C171.101 186.353 174.654 184.909 174.762 185.018C174.871 185.127 176.909 189.463 179.289 194.655L183.619 204.093L183.942 215.593C184.12 221.918 184.176 227.258 184.068 227.46C183.96 227.662 181.428 229.078 178.44 230.606C157.589 241.271 143.775 254.42 135.13 271.833C128.731 284.719 126.149 298.578 127.395 313.343C128.468 326.064 130.974 335.022 136.695 346.593C140.75 354.794 145.239 361.112 151.921 368.025C159.879 376.258 171.419 384.674 181.584 389.66L184.421 391.051V413.947C184.421 431.944 184.287 436.837 183.796 436.817C183.452 436.804 178.896 434.692 173.671 432.124Z" fill="black" stroke="black"/>
<path d="M183.996 216.41C183.899 210.186 184.625 204.613 184.5 204.407C184.374 204.201 184.128 203.907 184.5 203.907C185.238 203.907 190.205 197.982 199.823 185.852C203.206 181.583 206.986 176.854 208.222 175.342C209.459 173.83 211.813 170.849 213.455 168.717C215.098 166.585 216.811 164.842 217.263 164.842C218.218 164.842 230.211 158.647 234.215 156.085C235.714 155.126 237.126 154.342 240.013 152.342C240.396 152.342 242.618 150.734 246.921 147.341C247.609 146.799 248.426 146.352 248.738 146.349C249.05 146.345 250.078 145.498 251.023 144.467C251.969 143.436 253.964 141.484 255.456 140.128C262.644 133.603 273.022 123.166 275.171 120.301C275.721 119.568 277.171 117.652 278.394 116.044C280.769 112.919 285.421 106.022 285.421 105.626C285.421 105.494 286.962 102.845 288.845 99.7395C295.398 88.9335 307.662 62.3565 306.577 61.3155C306.354 61.1015 303.696 60.1115 300.671 59.1165C291.783 56.1935 287.921 54.7365 287.921 54.3035C287.921 53.3375 295.159 46.8425 296.236 46.8425C296.49 46.8425 297.264 46.2245 297.956 45.4675C300.164 43.0545 305.511 38.5875 306.017 38.7315C306.286 38.8085 306.613 38.4655 306.743 37.9705C306.872 37.4745 307.736 36.6245 308.662 36.0805C311.065 34.6705 319.3 27.8795 319.62 27.0445C319.768 26.6575 320.153 26.3425 320.477 26.3425C320.8 26.3425 321.762 25.6645 322.617 24.8345C328.934 18.7045 332.516 15.5015 334.671 14.0565C336.046 13.1345 338.521 11.1175 340.171 9.57346C341.821 8.03046 343.571 6.54747 344.652 4.94547C344.868 5.14047 345.769 4.74646 346.655 4.07046C348.579 2.60346 348.921 2.55447 348.921 3.74847C348.921 4.24647 349.404 6.44047 349.994 8.62347C350.585 10.8065 351.246 13.6045 351.464 14.8425C352.107 18.4985 358.624 45.5245 366.696 78.0085C367.095 79.6115 367.421 81.2295 367.421 81.6025C367.421 82.4145 364.379 81.4345 353.498 77.1185C349.552 75.5535 346.242 74.3545 346.142 74.4555C346.041 74.5565 345.299 76.6575 344.492 79.1255C337.387 100.868 323.443 125.859 307.686 145.092C297.646 157.349 284.003 170.964 272.471 180.24C252.879 195.998 225.246 211.335 193.858 223.873C191.005 225.012 187.658 226.346 186.421 226.837L184.171 227.729L183.996 216.41Z" fill="black" stroke="black"/>
<path d="M185.5 204.159C185.913 203.817 186.475 203.169 186.75 202.719C187.025 202.268 190.175 198.36 193.75 194.032C197.325 189.705 203.001 182.654 206.364 178.363C209.726 174.072 213.037 169.886 213.721 169.061C214.404 168.236 215.438 166.943 216.018 166.186C216.598 165.429 217.344 164.811 217.676 164.811C219.073 164.811 235.112 156.343 235.789 155.248C235.942 154.999 236.784 154.467 237.659 154.063C239.835 153.062 244.605 149.783 247 147.643C247.413 147.274 248.532 146.429 249.486 145.766C250.442 145.104 251.639 144.054 255.096 141.396C255.456 140.893 259.575 136.787 264.25 132.271C268.925 127.756 272.841 123.845 272.952 123.58C273.063 123.316 274.302 121.741 275.705 120.08C279.011 116.167 285.944 105.729 290.494 97.8106C294.634 90.6056 302.955 73.8526 304.4 69.8106C304.942 68.2986 305.793 66.0006 306.293 64.7036C306.793 63.4066 307.101 62.2596 306.976 62.1516C306.851 62.0456 302.488 60.5176 297.279 58.7596C292.071 57.0006 287.726 55.2936 287.624 54.9666C287.432 54.3536 287.914 53.8396 291.591 50.7406C292.778 49.7386 295.476 47.4326 297.586 45.6156C299.695 43.7976 301.524 42.3106 301.652 42.3106C301.779 42.3106 302.977 41.2836 304.316 40.0276C305.654 38.7726 307.312 37.3696 308 36.9116C308.688 36.4526 309.544 35.6806 312 33.8276C312 33.5616 313.519 32.1956 315.375 30.7896C317.231 29.3856 318.93 27.9146 319.15 27.5226C319.37 27.1306 319.799 26.8106 320.105 26.8106C320.409 26.8106 321.942 25.6296 323.51 24.1856C330.546 17.7076 334.136 14.5456 334.672 14.3536C334.99 14.2386 335.826 13.5636 336.529 12.8536C337.234 12.1426 339.108 10.4356 340.695 9.06061C342.282 7.68561 344.631 5.60261 345.915 4.43161C348.484 2.08961 349.838 1.44861 350.602 2.21261C351.045 2.65561 352.105 7.01461 357.798 31.8106C359.567 39.5106 363.958 57.8406 364.297 58.9356C364.446 59.4166 364.348 59.8106 364.082 59.8106C363.814 59.8106 362.33 54.5796 360.783 48.1856C355.668 27.0466 353.441 17.5876 353.042 15.3106C352.824 14.0726 352.164 11.2746 351.573 9.09161C350.983 6.90861 350.5 4.71461 350.5 4.21661C350.5 3.02261 350.158 3.0716 348.234 4.5386C347.348 5.2146 346.447 5.60859 345.639 6.74859C345.15 7.01559 343.4 8.49859 341.75 10.0416C340.1 11.5856 337.625 13.6026 336.25 14.5246C334.875 15.4466 331.95 17.9096 329.75 19.9976C327.55 22.0866 325.075 24.4356 324.25 25.2176C323.425 26.0006 322.356 26.7846 321.875 26.9596C321.394 27.1356 321 27.4766 321 27.7186C321 28.2596 312.557 35.1906 310.241 36.5486C309.315 37.0926 308.451 37.9426 308.322 38.4386C308.192 38.9336 307.865 39.2766 307.596 39.1996C307.09 39.0556 301.743 43.5226 299.535 45.9356C298.843 46.6926 298.069 47.3106 297.815 47.3106C296.738 47.3106 289.5 53.8056 289.5 54.7716C289.5 55.2046 293.362 56.6616 302.25 59.5846C305.275 60.5796 307.933 61.5696 308.156 61.7836C309.241 62.8246 296.977 89.4016 290.424 100.208C288.541 103.314 287 105.963 287 106.095C287 106.491 282.348 113.388 279.973 116.513C278.75 118.121 277.3 120.037 276.75 120.77C274.601 123.635 264.223 134.072 257.035 140.597C255.543 141.953 253.548 143.905 252.602 144.936C251.657 145.967 250.629 146.814 250.317 146.818C250.005 146.821 249.188 147.268 248.5 147.81C244.197 151.203 241.975 152.811 238.932 154.811C238.705 154.811 237.293 155.595 235.794 156.554C231.79 159.116 219.797 165.311 218.842 165.311C218.39 165.311 216.677 167.054 215.034 169.186C213.392 171.318 211.038 174.299 209.801 175.811C208.565 177.323 204.785 182.052 201.402 186.321C191.433 198.895 186.347 204.812 185.523 204.795C184.838 204.781 184.836 204.708 185.5 204.159Z" fill="black" stroke="black"/>
<path d="M286 53.4067L348.5 0.906738L367.5 82.4067L346.5 74.9067L184 227.407V202.667L200.5 182.407L215.5 164.407C220.5 162.907 291 120.907 306 60.9067L286 53.4067Z" fill="black" stroke="black"/>
<path d="M287.78 54.6176L350.449 1.90674L369.5 83.734L346 75.4067L342.5 80.9067L322 113.407L238 192.407L202.5 218.407L193 223.907L184 227.907V206.907L217.09 166.063C224.5 163.907 292.794 122.389 307.834 62.1477L287.78 54.6176Z" fill="black" stroke="black"/>
<path d="M251.25 84.5708C247.675 83.0518 241.938 80.6178 238.5 79.1618C235.062 77.7068 227.75 74.5418 222.25 72.1308C216.75 69.7188 201.9 63.3078 189.25 57.8848L166.25 48.0248L166.12 24.9098C165.997 3.0258 166.036 1.81282 166.87 2.12282C167.354 2.30182 177.475 6.41982 189.361 11.2738C209.578 19.5298 210.953 20.1698 210.695 21.1978C210.323 22.6808 211.264 23.1638 212.126 21.9328C212.802 20.9668 213.072 21.0418 222.376 24.7758C227.633 26.8848 231.837 28.7648 231.721 28.9548C231.457 29.3808 233.375 30.6468 234.851 31.0218C235.457 31.1748 236.019 31.1108 236.101 30.8778C236.183 30.6448 240.75 32.2388 246.25 34.4188C251.75 36.5988 256.531 38.3878 256.875 38.3948C258.175 38.4208 257.35 39.4088 252.241 43.9378C249.348 46.5028 247.052 48.8128 247.138 49.0688C247.223 49.3248 252.683 51.3728 259.271 53.6198C265.86 55.8658 271.635 57.8518 272.106 58.0318C272.859 58.3208 272.658 59.0058 270.426 63.7588C263.201 79.1438 258.995 87.4038 258.404 87.3698C258.044 87.3488 254.825 86.0898 251.25 84.5708Z" fill="black" stroke="black"/>
<path d="M0.5 155.352V71.6287L9.125 67.9427C13.868 65.9157 24.725 61.2837 33.25 57.6497C58.029 47.0887 87.187 34.6017 94.5 31.4187C111.2 24.1517 164.908 1.90674 165.753 1.90674C165.883 1.90674 166.048 12.3127 166.12 25.0317L166.25 48.1567L154.5 53.1787C148.038 55.9417 140.079 59.3167 136.813 60.6787C133.548 62.0417 111.16 71.5987 87.063 81.9167L43.25 100.679L43.122 133.094L42.993 165.508L39.072 169.833C21.688 189.005 7.70901 213.169 2.47501 233.091C1.69001 236.08 0.924987 238.649 0.773987 238.8C0.622987 238.95 0.5 201.398 0.5 155.352Z" fill="black" stroke="black"/>
<path d="M67.007 367.597C59.683 361.931 54.961 357.715 48.229 350.828C28.489 330.631 15.844 309.534 10.245 287.455C8.20903 279.426 8.16504 278.297 9.52304 268.806C13.072 244.003 22.628 219.503 36.886 198.657C49.423 180.327 67.135 161.947 85.75 147.948C100.853 136.591 120.272 125.793 138.108 118.833C141.88 117.361 144.969 115.932 144.971 115.657C144.974 115.382 143.32 110.77 141.296 105.407C138.821 98.8488 137.818 95.6088 138.233 95.5098C139.255 95.2658 217.937 108.677 218.441 109.181C218.59 109.33 218.466 109.846 218.166 110.327C217.338 111.652 200.168 134.121 193.268 142.907C184.851 153.625 176.567 164.29 172.394 169.782C170.46 172.326 168.727 174.407 168.544 174.407C168.361 174.407 167.338 172.326 166.274 169.782C162.68 161.201 159.859 155.407 159.275 155.407C157.561 155.407 142.231 162.453 133.25 167.368C123.91 172.479 109.711 182.047 102.5 188.088C79.723 207.171 64.488 229.06 55.945 254.977C51.089 269.705 49.16 283.474 49.656 299.856C50.448 326.034 57.553 349.549 70.709 369.532C71.207 370.288 71.533 370.901 71.433 370.893C71.332 370.884 69.341 369.402 67.007 367.597Z" fill="black" stroke="black"/>
<path d="M259 38.9067L166.5 1.40674V48.9067L258.5 87.9067L273.5 57.9067L248 48.9067L259 38.9067Z" fill="black" stroke="black"/>
</svg>
